<?xml version="1.0" encoding="utf-8"?>
<!-- Generator: Adobe Illustrator 25.2.2, SVG Export Plug-In . SVG Version: 6.00 Build 0)  -->
<svg version="1.1" id="family_trust_svg" xmlns="http://www.w3.org/2000/svg" xmlns:xlink="http://www.w3.org/1999/xlink" x="0px" y="0px"
	 viewBox="0 0 389.4 461.4" style="enable-background:new 0 0 389.4 461.4;" xml:space="preserve">
<style type="text/css">
	.feat_st0{fill:#6E31FF;}
	.feat_st1{fill:#FFFFFF;}
	.feat_st2{fill:#9463FF;}
	.feat_st3{fill:none;stroke:#6E31FF;stroke-linecap:round;stroke-linejoin:round;}
#Group_11932 {
  animation: floating 7s ease-in-out infinite;
}
#Group_11924 {
  animation: floating2 8s ease-in-out infinite;
}
#Group_11927 {
  animation: floating3 10s ease-in-out infinite;
}

@keyframes floating {
  0% { transform: translate(0, 0); }
  33% { transform: translate(0, -2%); }
  66% { transform: translate(0, 2%); }
  100% { transform: translate(0, 0); }
}
@keyframes floating2 {
  0% { transform: translate(0, 0); }
  33% { transform: translate(0, -1%); }
  66% { transform: translate(0, 1%); }
  100% { transform: translate(0, 0); }
}
@keyframes floating3 {
  0% { transform: translate(0, 1%); }
  33% { transform: translate(0, 0%); }
  66% { transform: translate(0, 2%); }
  100% { transform: translate(0, 1%); }
} 
</style>
<g id="Group_11892">
	<path id="Path_187" d="M196.9,451.6c-0.3,0-0.5-0.2-0.5-0.5c-0.6-5.4-1.2-10.7-1.8-16.1c-1.7-15.7-3.5-32-5.8-48.6
		c-7.1-47.9-14.7-91.7-24.6-142.2c-0.3-1.3-0.6-2.6-0.9-3.8c-0.5-2.6-1.2-5.1-2.1-7.6c-38.7,0-75.2,0-113.3,0.2
		c-0.3,0-0.5-0.3-0.5-0.5c0-0.3,0.2-0.5,0.5-0.5c38.2-0.2,74.8-0.2,113.6-0.2c0.2,0,0.4,0.1,0.5,0.3c1,2.6,1.8,5.3,2.3,8.1
		c0.3,1.2,0.5,2.5,0.9,3.8c10,50.5,17.6,94.3,24.6,142.2c2.3,16.6,4.1,32.9,5.8,48.6c0.6,5.3,1.2,10.7,1.8,16.1
		C197.5,451.3,197.3,451.6,196.9,451.6C197,451.6,197,451.6,196.9,451.6C197,451.6,196.9,451.6,196.9,451.6z"/>
</g>
<g id="Group_11893">
	<path id="Path_189" d="M133.6,451.4C133.6,451.4,133.6,451.4,133.6,451.4c-0.3,0-0.5-0.3-0.5-0.6c0,0,0,0,0,0
		c1.7-18.2,2.7-37.1,3.7-55.4c0.4-6.6,0.7-13.5,1.1-20.1c0-0.3,0.3-0.5,0.5-0.5c0.3,0,0.5,0.3,0.5,0.5c0,0,0,0,0,0
		c-0.4,6.7-0.8,13.5-1.1,20.1c-1,18.3-2,37.2-3.7,55.4C134.1,451.2,133.9,451.4,133.6,451.4z"/>
</g>
<g id="Group_11894">
	<path id="Path_190" d="M24.3,451.3c-0.3,0-0.5-0.2-0.5-0.5c-6.1-60.8-3-114.2,9.5-163.1c0.1-0.5,0.3-0.9,0.6-1.2
		c0.2-0.2,0.3-0.5,0.4-0.8c0,0,0-0.1,0-0.1c3.8-15.2,9.4-29.4,14.4-41.3c0.1-0.3,0.4-0.4,0.7-0.3c0.3,0.1,0.4,0.4,0.3,0.7l0,0
		c-5,11.8-10.6,26-14.4,41.1c-0.1,0.5-0.3,0.9-0.6,1.2c-0.2,0.2-0.3,0.5-0.4,0.8c0,0,0,0.1,0,0.1c-12.4,48.8-15.5,102-9.5,162.8
		C24.9,451.1,24.7,451.3,24.3,451.3C24.4,451.3,24.4,451.3,24.3,451.3L24.3,451.3z"/>
</g>
<g id="Group_11903">
	<g id="Group_11900">
		<g id="Group_11897">
			<path id="Path_191" class="feat_st1" d="M355.2,180.7c3.3,2.4-3.4,15.5,2.4,8.6c6-7,17.4-15.3,22-11.9c3.1,2.4-0.4,7.7-0.4,7.7
				c2.7,11.8-5.3,26.5-17.4,33.8C350.8,225.5,347.5,175.1,355.2,180.7z"/>
			<g id="Group_11896">
				<path id="Path_192" d="M355.5,180.3c0.4,0.3,0.6,0.7,0.6,1.2c0,1.4-3.6,13.1,1.1,7.5c6.3-7.4,17.9-15.5,22.7-12
					c3.1,2.4,0.4,7.2-0.2,8.2c2.6,11.7-5.1,26.6-17.6,34.1C351.2,225.9,347.4,174.4,355.5,180.3z M361.5,218.5
					c12.2-7.3,19.7-21.9,17.1-33.2c0-0.1,0-0.3,0.1-0.4c0,0,3.2-5,0.6-7c-4.2-3.2-15.4,4.9-21.3,11.8c-4.8,5.7-18.1,7.1-17.7,6.2
					c0.9-4,5.9-7.4,10-10.2c2.4-1.6,4.9-3.3,4.9-4.2c0-0.1,0-0.2-0.2-0.3C347.3,175.6,350.7,225,361.5,218.5z"/>
			</g>
		</g>
		<g id="Group_11898">
			<path id="Path_193" d="M353.1,206.6c-0.3,0-0.5-0.2-0.5-0.5c0-0.2,0.1-0.4,0.3-0.4c7-3.9,13.2-9,18.4-15.1
				c0.2-0.2,0.5-0.3,0.7-0.1c0.2,0.2,0.3,0.5,0.1,0.7l0,0c-5.2,6.2-11.6,11.5-18.7,15.4C353.3,206.6,353.2,206.6,353.1,206.6z"/>
		</g>
		<g id="Group_11899">
			<path id="Path_194" d="M359.2,212.3c-0.3,0-0.5-0.2-0.5-0.5c0-0.2,0.1-0.4,0.3-0.5c9-4.4,11.9-9.3,11.9-9.4
				c0.2-0.2,0.5-0.3,0.7-0.2c0.2,0.1,0.3,0.4,0.2,0.7c-0.1,0.2-3.1,5.2-12.3,9.8C359.3,212.2,359.3,212.3,359.2,212.3z"/>
		</g>
	</g>
	<g id="Group_11901">
		<path id="Path_196" class="feat_st0" d="M224.7,203.9c-19.6-14.2-34-88-66.6-92.1c-22.3-2.8-14.7,109.4,34.7,146
			C214.5,273.9,237.1,212.9,224.7,203.9z"/>
		<path id="Path_197" d="M192.4,258.3c-24.7-18.3-36.3-52.7-41-71.6c-6.7-26.7-7.6-54.5-2.4-67.7c2.2-5.4,5.3-8,9.1-7.6
			c20.1,2.5,33.2,30.8,44.9,55.7c7.4,15.9,14.4,30.9,22,36.4C237.3,212.4,206.3,268.5,192.4,258.3z M157.2,112.3c-3,0-5.4,2.3-7.3,7
			c-5.2,13-4.2,40.5,2.4,67c4.7,18.8,16.2,53,40.6,71.1c23.6,17.4,44-44,31.4-53.1c-7.8-5.7-14.9-20.8-22.3-36.8
			c-11.5-24.7-24.6-52.7-44.1-55.2C157.7,112.4,157.5,112.3,157.2,112.3z"/>
	</g>
</g>
<path id="Path_200" d="M56.6,78.3c0,0,60,16.9,81.4,12.2c10.6-2.3,18.8-14,22.1-22.7c10-26.1,3.3-54.8-26.3-63.8
	c-17.6-5.4-35.1-6.4-53.9,12.1C62.5,33.4,71.6,66.3,56.6,78.3z"/>
<path class="feat_st1" d="M152.1,117.7c-6.6-8.5-17-15.4-28.8-19.6l6.3-32.4l-27.2-8l-7.1,35.7c-12.7,0.3-25.2,4.2-34.9,12.8
	c-31.3,27.6-8.8,85-8.8,85l71.9-10.4C123.5,180.8,175.7,147.9,152.1,117.7z"/>
<path id="Path_202" d="M114.9,84.2c7.9,0.1-4-12.2-4-12.2l-9.3-8.9c0,0-1.4,6.9-3,14.4C98.7,77.4,106.2,84,114.9,84.2z"/>
<path id="Path_203" class="feat_st1" d="M142.1,57.1c-4,16.2-16.6,28.1-25.4,25.9c-10.7-2.6-19.5-19.5-15.5-35.8s17.2-26.9,27.9-24.2
	S146.1,40.9,142.1,57.1z"/>
<path id="Path_204" d="M94.1,47.8c2,4.6,16.1,0.7,19.5-2.9c7-7.4,10.4-29.9-2.7-25.7C103.1,21.8,92.1,43.3,94.1,47.8z"/>
<path id="Path_205" d="M118.8,16.3c-4.7,1.8-0.7,17,1.8,21.2c5.9,9.6,27.5,19,28,5.3C149,32.6,123.3,14.6,118.8,16.3z"/>
<g id="Group_11904">
	<path id="Path_206" d="M125.1,65.5c-1.1,0-2.1-0.3-3.1-0.7c-0.3-0.1-0.4-0.4-0.3-0.7s0.4-0.4,0.7-0.3c0.7,0.3,2.7,0.9,3.8,0.4
		c0.3-0.2,0.6-0.5,0.7-0.9c0.1-0.8,0.2-1.7,0.2-2.6c-0.1-2.8,0.3-5.6,1.1-8.3c0.1-0.3,0.4-0.4,0.7-0.3c0.3,0.1,0.4,0.4,0.3,0.7
		c-0.8,2.6-1.1,5.3-1,7.9c0,0.9,0,1.9-0.2,2.8c-0.2,0.7-0.6,1.2-1.2,1.5C126.2,65.4,125.7,65.5,125.1,65.5z"/>
</g>
<g id="Group_11905">
	<path id="Path_207" d="M123.2,72.5c-1.5,0-3-0.5-4.3-1.2c-1.3-0.8-1.3-1.1-1.3-1.2c0-0.3,0.2-0.5,0.5-0.5c0,0,0,0,0,0
		c0.2,0,0.4,0.1,0.5,0.2c2,1.7,4.9,2.2,7.3,1.1c0.3-0.1,0.6,0,0.7,0.3s0,0.6-0.3,0.7C125.3,72.3,124.2,72.5,123.2,72.5z"/>
</g>
<path id="Path_208" d="M122.1,47c-2.8-0.7-7.6,0.4-8.8,2.7c2.9-1.2,6.1-1.2,9.1-0.1C123.8,50.1,124.7,47.7,122.1,47z"/>
<path id="Path_209" d="M132.9,49.2c2.5,0.3,6.8,3.1,6,5.6c-0.2,0.8-2.1-2.7-7-3.3C130.8,51.3,131.1,48.9,132.9,49.2z"/>
<g id="Group_11906">
	<path id="Path_210" d="M121.5,53.7c-0.2,0-0.4-0.1-0.4-0.3c-1-1.8-3.5-2.2-6.3-0.8c-0.3,0.1-0.6,0-0.7-0.2s0-0.6,0.2-0.7
		c3.3-1.6,6.4-1.1,7.7,1.3c0.1,0.2,0.1,0.6-0.2,0.7C121.7,53.7,121.6,53.7,121.5,53.7L121.5,53.7z"/>
</g>
<g id="Group_11907">
	<path id="Path_211" d="M135.9,57.2c-0.2,0-0.4-0.1-0.4-0.3c-0.7-1.2-2.3-2.2-4.7-1c-0.3,0.1-0.6,0-0.7-0.2s0-0.6,0.2-0.7l0,0
		c2.9-1.4,5.1-0.2,6,1.5c0.1,0.2,0,0.6-0.2,0.7C136.1,57.2,136,57.2,135.9,57.2z"/>
</g>
<path id="Path_213" d="M133.5,98.2c0,0,5.2,40.3-18.3,39.3C88,136.2,85.4,94.3,85.4,94.3c-51.7,5.8-67.2,77-47.8,124.6
	c14.5,9.2,71.1,11.3,131.6,5.3C174.9,183.8,191,122.4,133.5,98.2z"/>
<path id="Path_214" d="M118.8,53.7c-0.7-0.1-1.2-0.8-1.1-1.5c0,0,0,0,0,0c0.2-0.6,0.8-1,1.4-0.8c0.5,0.1,0.8,0.5,0.8,1
	C120.1,52.9,119.5,53.8,118.8,53.7z"/>
<path id="Path_215" d="M133.4,57c-0.7-0.1-1.1-0.7-1-1.4c0,0,0,0,0,0c0.2-0.6,0.8-0.9,1.4-0.7c0.4,0.1,0.7,0.5,0.7,0.9
	C134.6,56.4,134,57.2,133.4,57z"/>
<path id="Path_216" class="feat_st1" d="M101.4,51.7c0.4,3.3,1.2,8.4-3.3,7c-1.8-0.6-4.9-5.2-4.3-8.4c0.9-4.6,3.4-5.2,5.3-5
	S101,48.5,101.4,51.7z"/>
<g id="Group_11908">
	<path id="Path_217" d="M117.1,83.6c-0.1,0-0.1,0-0.2,0c-12.5-4.3-14.9-11.9-17-23.9c-1.2,0.1-2.4-0.4-3.3-1.2
		c-2.4-2.2-3.6-5.3-3.2-8.5c0-0.3,0.3-0.5,0.6-0.4c0.3,0,0.5,0.3,0.4,0.6l0,0c-0.3,2.8,0.8,5.7,2.9,7.6c0.7,0.8,1.9,1.1,2.9,0.9
		c0.3-0.1,0.6,0.1,0.6,0.3c0,0,0,0,0,0.1c2,11.9,3.9,19.4,16.4,23.6c0.3,0.1,0.4,0.4,0.3,0.6C117.5,83.5,117.3,83.6,117.1,83.6
		L117.1,83.6z"/>
</g>
<path id="Path_218" d="M101.5,53.5c1.1,0.8,2.7-2.3,3.1-3.5c1-2.8-0.3-3.3-0.8-4.1c-1-1.3-3.9-3.4-2.9,0.6
	C101.8,50.3,100.4,52.7,101.5,53.5z"/>
<g id="Group_11909">
	<path id="Path_219" d="M94.6,98.5c0,0-0.1,0-0.1,0c-0.3-0.1-0.5-0.3-0.4-0.6c0,0,0,0,0,0l6.6-34.2c0.1-0.3,0.3-0.5,0.6-0.4
		c0.3,0.1,0.5,0.3,0.4,0.6L95.1,98C95,98.3,94.8,98.5,94.6,98.5z"/>
</g>
<g id="Group_11910">
	<path id="Path_220" class="feat_st0" d="M144.7,83.8c-0.3,0-0.5-0.2-0.5-0.5c0-0.2,0.1-0.3,0.2-0.4c0.2-0.1,16.9-11.7,13.6-32.8
		c0-0.3,0.2-0.5,0.5-0.6c0.3,0,0.5,0.1,0.6,0.4c3.4,21.8-13.9,33.7-14.1,33.8C144.9,83.8,144.8,83.8,144.7,83.8z"/>
</g>
<g id="Group_11911">
	<path id="Path_221" class="feat_st0" d="M141.9,50.2c-8.8-0.3-16.9-4.9-21.7-12.3c-0.2-0.2-0.1-0.6,0.2-0.7c0.2-0.2,0.6-0.1,0.7,0.2l0,0
		c6.9,10.7,19.8,13.1,24.5,11.3c0.3-0.1,0.6,0,0.7,0.3c0.1,0.3,0,0.6-0.3,0.7l0,0C144.6,50,143.2,50.2,141.9,50.2z"/>
</g>
<g id="Group_11912">
	<path id="Path_222" class="feat_st0" d="M145.8,44.1L145.8,44.1c-4-0.4-14.4-1.4-20.6-8.2c-0.2-0.2-0.2-0.5,0-0.7c0.2-0.2,0.5-0.2,0.7,0
		l0,0c6,6.5,16.1,7.5,19.9,7.9c0.3,0,0.5,0.3,0.5,0.6C146.3,43.9,146,44.1,145.8,44.1L145.8,44.1z"/>
</g>
<g id="Group_11913">
	<path id="Path_223" class="feat_st0" d="M105.2,49.2c-0.3,0-0.5-0.2-0.5-0.5c0-0.2,0.2-0.4,0.4-0.5c12-2.8,13.9-14.2,14.1-17.7
		c0-0.3,0.3-0.5,0.6-0.5c0.3,0,0.5,0.3,0.5,0.6c-0.3,3.6-2.3,15.7-14.9,18.6C105.3,49.2,105.2,49.2,105.2,49.2z"/>
</g>
<g id="Group_11914">
	<path id="Path_224" d="M99.9,55.8c0,0-0.1,0-0.1,0c-1.8-0.4-1.4-2.3-1.1-3.9c0.4-1.7,0.5-2.8-0.3-3.3c-0.3-0.1-0.4-0.4-0.2-0.7
		c0.1-0.3,0.4-0.4,0.7-0.2l0,0c1.6,0.8,1.2,2.8,0.9,4.4c-0.4,1.9-0.4,2.5,0.3,2.7c0.3,0.1,0.5,0.3,0.4,0.6
		C100.4,55.6,100.2,55.8,99.9,55.8L99.9,55.8z"/>
</g>
<g id="Group_11915">
	<path id="Path_225" class="feat_st0" d="M17.9,134.1c24.6-43.2,69-42.8,69-42.8c4,21.4,6.3,43.1,6.9,64.9c1.9,72.4-16.3,112.6,3.9,244.3
		l-80.5,9.1C17.2,409.5-20.8,202,17.9,134.1z"/>
	<path id="Path_226" d="M17.2,410c-0.2,0-0.5-0.2-0.5-0.4c-0.1-0.5-9.6-52.6-14.2-112.3c-2.7-35.1-3.3-65.9-1.6-91.6
		c2.1-32.2,7.6-56.3,16.5-71.9c9.7-17.4,25.3-30.8,44-37.8c8.1-3.1,16.8-4.9,25.5-5.3c0.2,0,0.5,0.2,0.5,0.4
		c3.9,21.4,6.3,43.2,6.9,64.9c0.6,24.1-0.9,44.5-2.6,66.1c-3.3,42.3-7,90.2,6.5,178.1c0,0.3-0.1,0.5-0.4,0.6c0,0,0,0,0,0L17.2,410
		C17.3,410,17.3,410,17.2,410z M17.9,134.1l0.4,0.3C9.5,149.8,4,173.8,2,205.8c-1.7,25.6-1.1,56.4,1.6,91.4
		C8,353.9,16.7,403.6,17.7,409l79.5-9c-13.4-87.6-9.7-135.5-6.4-177.8c1.7-21.6,3.2-42,2.6-66c-0.7-21.6-3-43.1-6.8-64.4
		C78,92.2,69.7,94,61.7,97c-18.4,6.9-33.8,20.2-43.4,37.4L17.9,134.1z"/>
</g>
<g id="Group_11916">
	<path id="Path_227" d="M84,181.5c-0.2,0-0.4-0.2-0.5-0.4c-3.6-16.9-16.4-53.7-16.5-54.1c0-0.1,0-0.3,0-0.4l15.4-28.8
		c0.1-0.3,0.4-0.4,0.7-0.3s0.4,0.4,0.3,0.7c0,0,0,0.1,0,0.1L68,126.9c1.1,3.1,13,37.7,16.5,54c0.1,0.3-0.1,0.6-0.4,0.6
		C84.1,181.5,84.1,181.5,84,181.5C84,181.5,84,181.5,84,181.5z"/>
</g>
<g id="Group_11917">
	<path id="Path_228" d="M71.1,179.5c-0.1,0-0.2,0-0.2-0.1c-0.2-0.1-0.3-0.4-0.2-0.7c0,0,0,0,0,0l6.4-11.4c0.1-0.2,0.5-0.3,0.7-0.2
		s0.3,0.5,0.2,0.7l0,0l-6.4,11.4C71.5,179.4,71.3,179.5,71.1,179.5z"/>
</g>
<g id="Group_11918">
	<path id="Path_229" class="feat_st0" d="M169.8,389.5l29.6-5.4c7-74.9-21-235.5-28.6-255.6c-9.9-26.3-31.8-30.4-31.8-30.4
		s12.6,22.9,22.7,124.1C164.1,245.2,169.8,318.9,169.8,389.5z"/>
	<path id="Path_230" d="M169.8,390c-0.3,0-0.5-0.2-0.5-0.5c0-71.4-5.8-145-8.1-167.3c-10-99.8-22.6-123.7-22.7-123.9
		c-0.1-0.2,0-0.6,0.2-0.7c0.1-0.1,0.2-0.1,0.3-0.1c0.2,0,22.3,4.4,32.2,30.8c3.9,10.4,12.8,56.1,19.8,107.4
		c5,37,12.9,105.4,8.8,148.5c0,0.2-0.2,0.4-0.4,0.5L169.8,390C169.9,390,169.9,390,169.8,390z M139.9,98.8
		c2.4,5.4,13.4,34.1,22.3,123.3c2.2,22.3,8,95.6,8.1,166.8l28.6-5.2c4-43-3.8-111-8.9-147.9c-7-51.2-15.8-96.8-19.8-107.1
		C161.8,106.1,144.3,100,139.9,98.8z"/>
</g>
<g id="Group_11919">
	<path id="Path_231" d="M160.7,185.6L160.7,185.6c-0.3,0-0.5-0.3-0.5-0.5l3.8-58l-19.7-23c-0.2-0.2-0.1-0.5,0.1-0.7
		c0.2-0.2,0.5-0.1,0.7,0.1l19.8,23.1c0.1,0.1,0.1,0.2,0.1,0.4l-3.8,58.2C161.2,185.4,161,185.6,160.7,185.6z"/>
</g>
<g id="Group_11920">
	<path id="Path_232" class="feat_st0" d="M115.8,145c-2.6,0-5.2-0.5-7.7-1.3c-1.7-0.6-6-2.3-6.1-3.1c0-0.3,0.2-0.5,0.5-0.5
		c0.2,0,0.3,0.1,0.4,0.2c4.2,2.5,9.1,3.8,14,3.7c3.9-0.2,7.5-2,9.9-4.9c0.2-0.2,0.5-0.2,0.7-0.1s0.2,0.5,0.1,0.7l0,0
		C124.7,143.2,120.3,145.1,115.8,145z"/>
</g>
<g id="Group_11921">
	<path id="Path_233" d="M164.5,203.6c0,0-0.1,0-0.1,0c-0.3-0.1-0.4-0.3-0.4-0.6c0,0,0,0,0,0c2.1-8.1,8.2-22.1,9.1-24.2l-7.5-11.6
		c-0.2-0.2-0.1-0.6,0.2-0.7c0.2-0.2,0.6-0.1,0.7,0.2l0,0l7.6,11.8c0.1,0.1,0.1,0.3,0,0.5c-0.1,0.2-7,15.6-9.2,24.3
		C164.9,203.4,164.7,203.6,164.5,203.6z"/>
</g>
<path id="Path_234" class="feat_st2" d="M185.8,187.2c-49.2,1.9-15.5,145.8,8.9,156.7c24.7,11,171.3-13.4,183.9-30.4
	c15.6-21.1-0.1-152.2-31.9-149.8C317.8,165.8,288.5,183.2,185.8,187.2z"/>
<g id="Group_11922">
	<path id="Path_235" d="M217.1,347.1c-10.3,0-18.3-0.8-22.7-2.8c-8.6-3.8-18.9-24.3-26.2-52.1c-7.8-29.4-10.2-58.6-6.4-78.1
		c3.4-17.5,11.7-27,24-27.5c0.3,0,0.5,0.2,0.5,0.5c0,0.3-0.2,0.5-0.5,0.5c-12,0.5-19.7,9.4-23,26.7c-3.7,19.3-1.3,48.3,6.4,77.6
		c7.3,27.5,17.4,47.7,25.7,51.4c12.7,5.6,57.5,1.7,96.2-4.7c38.7-6.4,80.6-16.8,87.1-25.5c0.2-0.2,0.5-0.3,0.7-0.1
		c0.2,0.2,0.3,0.5,0.1,0.7c-6.6,9-48.8,19.5-87.7,25.9C265.5,343.9,237.1,347.1,217.1,347.1z"/>
</g>
<path id="Path_236" d="M330.5,256.7c34.6-9.1,46.5-21.2,49.3-28.7l-3.4-16.8c9.5,9.1,15.6,25.7,12,38.4c-4.8,17-37.4,30.1-55.6,27.8
	C321.9,276,321.5,259.1,330.5,256.7z"/>
<g id="Group_11923">
	<path id="Path_237" d="M374.5,283.1c-0.3,0-0.5-0.2-0.5-0.5c0-1-4.2-100.8-19.4-109.7c-1.2-0.8-2.8-0.8-4-0.1
		c-23.7,12-63.3,21.2-84.9,25.6c-34.2,7-62.6,10.4-74.6,10.6c-4.3,0.1-7.7-1.1-10.2-3.5c-2.4-2.5-3.9-5.9-4-9.4
		c0-0.3,0.2-0.5,0.5-0.5c0.3,0,0.5,0.2,0.5,0.5c0.2,3.2,1.5,6.3,3.7,8.7c2.3,2.2,5.4,3.3,9.4,3.2c11.9-0.2,40.3-3.6,74.4-10.6
		c21.5-4.4,61.1-13.5,84.6-25.5c1.6-0.9,3.5-0.8,5,0.1c15.7,9.2,19.7,106.4,19.9,110.6C375.1,282.8,374.9,283,374.5,283.1
		L374.5,283.1z"/>
</g>
<path id="Path_238" class="feat_st1" d="M341.4,267.1c0.2,2.5-2,4.8-5,5.1c-3,0.3-5.7-1.5-5.9-4c-0.2-2.5,2-4.8,5-5.1
	C338.6,262.8,341.2,264.6,341.4,267.1z"/>
<g id="Group_11924">
	<path id="Path_239" class="feat_st0" d="M276.8,174.1c-4.2,0-8.3-0.9-12.2-2.5c-1.2-0.5-2.4-1.1-3.5-1.7c-0.5-0.3-1-0.5-1.5-0.8
		c-0.3-0.1-0.4-0.4-0.2-0.7s0.4-0.4,0.7-0.2l0,0c0.5,0.2,1,0.5,1.5,0.8c1.1,0.6,2.3,1.2,3.4,1.7c7.9,3.2,15.7,3.2,22.7,0.1
		c7.4-3.3,13.2-9.9,16.4-18.7c7.3-20.2,3.4-33.9-12-41.7c-0.8-0.4-1.6-0.7-2.4-1c-0.8-0.3-1.6-0.6-2.3-1c-0.3-0.1-0.4-0.4-0.2-0.7
		c0.1-0.3,0.4-0.4,0.7-0.2l0,0c0.7,0.3,1.5,0.7,2.2,0.9c0.9,0.3,1.7,0.7,2.5,1.1c8.5,4.3,13.7,10.5,15.4,18.5c1.5,6.8,0.5,15-3,24.4
		c-3.3,9-9.3,15.9-16.9,19.3C284.6,173.3,280.7,174.1,276.8,174.1z"/>
	<path id="Path_240" class="feat_st0" d="M272.3,172.2c-4.2,0-8.3-1.1-12-3.2c-7-4-11.3-10.1-12.6-18.4c-1.4-8.2,0.5-16.8,2.3-22.6
		c2.8-8.7,9-15.8,17.2-19.8c6.6-3.1,14.2-3.2,20.9-0.3c18.2,7.8,18.6,27.1,12.9,42.6c-3.3,9.1-10.4,16.4-19.4,19.9
		C278.6,171.6,275.4,172.1,272.3,172.2z M277.9,106.9c-3.5,0-7.1,0.8-10.3,2.3c-7.9,3.8-13.9,10.8-16.6,19.2
		c-3.4,10.8-6.7,30.4,9.8,39.8c6.2,3.5,13.7,4,20.4,1.4c8.8-3.4,15.6-10.4,18.8-19.3c5.5-15.1,5.2-33.8-12.3-41.3
		C284.6,107.6,281.2,106.9,277.9,106.9z"/>
	<path id="Path_241" class="feat_st0" d="M262,165.2c-0.1,0-0.2,0-0.3-0.1c-11.8-8.5-11.7-24.5-8.2-35.6c2.4-7.4,7.7-13.6,14.8-16.9
		c5.6-2.7,12.1-2.8,17.9-0.3c11.5,4.8,16.5,16.3,13.3,30.6c0,0.3-0.3,0.5-0.6,0.4c-0.3,0-0.5-0.3-0.4-0.6c0,0,0,0,0,0
		c3.1-13.8-1.7-24.8-12.7-29.4c-5.5-2.3-11.7-2.2-17,0.3c-6.8,3.3-11.9,9.2-14.2,16.3c-3.5,10.8-3.5,26.3,7.8,34.5
		c0.2,0.2,0.3,0.5,0.1,0.7C262.3,165.1,262.1,165.2,262,165.2L262,165.2z"/>
	<path id="Path_267" class="feat_st3" d="M267.6,135.5l-4.9,14.8l21.8,6.4l4.9-14.8"/>
	<path id="Path_268" class="feat_st3" d="M263.8,137l17.8-7.8l10,16l0.9-2.7l-10-16l-17.8,7.8L263.8,137L263.8,137z"/>
	<path id="Path_269" class="feat_st3" d="M270.6,152.5l3-9.6l6.1,1.9l-3,9.6"/>
	<path id="Path_270" class="feat_st3" d="M272,123.8l4.1,1.3l-1.5,4.8l-5.3,2.4L272,123.8L272,123.8z"/>
</g>
<g id="Group_11927">
	<path id="Path_242" class="feat_st0" d="M274.3,69c-0.3,0-0.5,0-0.8,0c-8.4-0.3-16.2-4-21.6-10.4c-5.1-6-8-14.1-8.4-23
		c-0.4-9.2,1.8-17.7,6-23.8c4.8-6.9,12.1-10.9,21.2-11.6c1-0.1,1.9-0.1,2.7-0.1c0.8,0,1.6,0,2.4-0.1c0.3,0,0.5,0.2,0.5,0.5
		c0,0.3-0.2,0.5-0.5,0.5c-0.9,0.1-1.7,0.1-2.5,0.1c-0.8,0-1.7,0-2.7,0.1c-20.3,1.4-26.8,18.7-26.2,34.3c0.7,18.6,12.4,31.7,29,32.5
		c0.8,0,1.6,0,2.4,0c0.9,0,1.8-0.1,2.6,0c0.3,0,0.5,0.3,0.5,0.5c0,0.3-0.3,0.5-0.5,0.5c0,0,0,0,0,0c-0.8,0-1.7,0-2.5,0
		C275.5,69,274.9,69,274.3,69z"/>
	<path id="Path_243" class="feat_st0" d="M278.9,68.6L278.9,68.6c-8.5,0.1-16.6-3.6-21.9-10.1c-4.9-6-7.9-14.2-8.4-23.1
		c-0.6-10.7,2.5-20.6,8.5-27c4.8-5.2,11.6-8.1,18.7-8c8.6-0.3,16.8,3.5,22.2,10.1c5,5.9,8.2,14.2,9.2,23.4c1.1,9.4-1.9,18.7-8,25.9
		C294,65.5,286.6,68.7,278.9,68.6z M276.4,1.3c-0.2,0-0.4,0-0.6,0c-6.8,0-13.3,2.8-18,7.7c-5.8,6.2-8.8,15.8-8.2,26.2
		c0.9,16,10.3,32.2,29.3,32.3h0.1c7.4,0.1,14.5-3,19.5-8.6c6-6.9,8.8-16,7.8-25.1C304.5,18.8,295.8,1.3,276.4,1.3z"/>
	<path id="Path_244" class="feat_st0" d="M278,63.9c-10.2,0-15.6-5.8-21.2-12.7c-0.2-0.2-0.1-0.5,0.1-0.7c0.2-0.2,0.5-0.1,0.7,0.1l0,0
		c5.7,7.1,11,12.6,21.2,12.3c6.6,0,12.9-2.8,17.3-7.7c4.7-5.3,6.9-13,6.1-21c-1.6-16.4-11.8-27.6-26-28.5c-0.3,0-0.5-0.2-0.5-0.5
		c0-0.3,0.2-0.5,0.5-0.5c0,0,0,0,0,0c14.7,0.9,25.3,12.5,27,29.4c0.8,8.3-1.5,16.2-6.4,21.8c-4.6,5.1-11.1,8.1-18,8.1
		C278.6,63.9,278.3,63.9,278,63.9z"/>
	<path id="Path_245" class="feat_st0" d="M254.9,46.3c-0.2,0-0.4-0.1-0.5-0.4c-1.1-3.4-1.8-6.9-2-10.5c0-0.3,0.2-0.5,0.5-0.5
		c0.3,0,0.5,0.2,0.5,0.5l0,0c0.2,3.5,0.9,6.9,2,10.3c0.1,0.3-0.1,0.6-0.3,0.6c0,0,0,0,0,0C255,46.3,255,46.3,254.9,46.3z"/>

	<g id="Group_11891">
		<g id="Group_11885">
			<path id="Path_176" class="feat_st0" d="M274.9,42.7l9.2-1c2.2-0.2,3.7-2.2,3.5-4.3s-2.2-3.7-4.3-3.5l-9.2,1L274.9,42.7z M274.8,35.5
				l8.6-0.9c1.8-0.2,3.5,1.1,3.7,2.9c0.2,1.8-1.1,3.5-2.9,3.7l0,0l-8.6,0.9L274.8,35.5z"/>
			<g id="Group_11884">
				<path id="Path_177" class="feat_st0" d="M275,42.7c2.6-0.4,5.1-0.7,7.6-1c0.6-0.1,1.3-0.1,1.9-0.2c2-0.4,3.4-2.3,3-4.4
					c-0.3-1.8-1.9-3.1-3.8-3c-0.6,0-1.3,0.2-1.9,0.2l-3.8,0.5l-3.8,0.4l0.2-0.3c0.1,1.3,0.2,2.6,0.3,3.9L275,42.7z M274.9,42.8
					l-0.6-3.8c-0.2-1.3-0.4-2.6-0.5-4c0-0.1,0.1-0.2,0.2-0.3h0l3.8-0.4l3.8-0.4c0.6,0,1.3-0.1,1.9-0.2c2.3,0.1,4.1,2,4,4.2
					c0,1.1-0.5,2.2-1.4,3c-0.5,0.4-1.1,0.8-1.8,0.9c-0.7,0.1-1.3,0.2-2,0.2C280,42.4,277.4,42.6,274.9,42.8z"/>
				<path id="Path_178" class="feat_st0" d="M274.8,35.4c2.2-0.4,4.5-0.7,6.8-0.9l1.8-0.2c0.6,0,1.2,0.1,1.8,0.3c1.7,0.8,2.5,3,1.6,4.7
					c-0.2,0.5-0.6,0.9-1,1.2c-0.5,0.4-1,0.6-1.6,0.7l-1.7,0.2c-2.3,0.3-4.6,0.6-6.9,0.8h0c-0.1,0-0.2-0.1-0.2-0.2c0,0,0,0,0,0l0,0
					c-0.1-1.1-0.2-2.3-0.3-3.4L274.8,35.4z M274.8,35.5l0.5,3.3c0.2,1.1,0.3,2.2,0.4,3.2l-0.3-0.2c2.3-0.3,4.6-0.5,6.9-0.7l1.7-0.2
					c1.1-0.1,2.1-0.8,2.6-1.8c0.2-0.5,0.3-1.1,0.3-1.6c-0.1-0.6-0.3-1.1-0.6-1.5c-0.3-0.4-0.8-0.8-1.3-1c-0.5-0.2-1.1-0.3-1.6-0.2
					l-1.7,0.2C279.4,35.1,277.2,35.3,274.8,35.5L274.8,35.5z"/>
			</g>
		</g>
		<g id="Group_11887">
			<path id="Path_179" class="feat_st0" d="M283.8,25.8c-0.2-2.2-2.2-3.7-4.3-3.5l-6.7,0.7l0.9,7.8l6.7-0.7
				C282.5,29.9,284,27.9,283.8,25.8z M280.3,29.5l-6.1,0.7l-0.7-6.6l6.1-0.7c1.8-0.2,3.5,1.1,3.7,2.9
				C283.4,27.6,282.2,29.3,280.3,29.5C280.3,29.5,280.3,29.5,280.3,29.5z"/>
			<g id="Group_11886">
				<path id="Path_180" class="feat_st0" d="M283.8,25.8c-0.1-1.1-0.7-2-1.6-2.6c-0.9-0.6-1.9-0.8-3-0.6c-1.1,0.1-2.1,0.2-3.2,0.3
					s-2.1,0.2-3.2,0.3l0.1-0.1c0.1,0.7,0.1,1.3,0.2,2s0.2,1.3,0.3,1.9c0.2,1.3,0.4,2.6,0.5,3.9l-0.2-0.2c2.1-0.3,4.3-0.5,6.4-0.7
					c1,0,2-0.5,2.8-1.2C283.5,27.9,283.9,26.8,283.8,25.8z M283.8,25.8c0.1,1.1-0.2,2.2-0.9,3.1c-0.3,0.4-0.8,0.8-1.3,1.1
					c-0.5,0.3-1,0.4-1.6,0.5c-2.1,0.3-4.3,0.5-6.4,0.7h0c-0.1,0-0.2-0.1-0.2-0.2c0,0,0,0,0,0c-0.1-1.3-0.2-2.6-0.3-3.9
					c-0.1-0.7-0.1-1.3-0.2-2s-0.1-1.3-0.2-2c0,0,0-0.1,0.1-0.1c0,0,0,0,0,0l0,0c1.1-0.1,2.1-0.3,3.2-0.4c1.1-0.2,2.1-0.3,3.2-0.4
					c0.6-0.1,1.1,0,1.7,0.1c0.5,0.2,1,0.4,1.5,0.8C283.2,23.7,283.7,24.7,283.8,25.8z"/>
				<path id="Path_181" class="feat_st0" d="M280.3,29.5c-0.5,0.1-1,0.1-1.5,0.2l-1.5,0.2c-1,0.2-2,0.3-3,0.4c-0.1,0-0.2-0.1-0.2-0.2
					c-0.1-1.1-0.2-2.2-0.3-3.3s-0.2-2.2-0.3-3.3c0,0,0-0.1,0.1-0.1l0,0c1.4-0.2,2.7-0.4,4.1-0.6c0.7-0.1,1.4-0.2,2.1-0.3
					c0.7-0.1,1.5,0.1,2.1,0.5c0.6,0.4,1.1,1,1.4,1.6c0.3,0.7,0.3,1.4,0.1,2.2C282.9,28.3,281.7,29.4,280.3,29.5z M280.2,29.5
					c0.7-0.1,1.3-0.4,1.8-0.9c0.5-0.5,0.8-1.1,0.9-1.7c0.2-1.3-0.4-2.6-1.5-3.3c-0.5-0.3-1.2-0.5-1.8-0.4l-2.1,0.2
					c-1.4,0.1-2.7,0.2-4.1,0.3l0.1-0.1c0.1,1.1,0.2,2.2,0.4,3.3s0.3,2.2,0.5,3.3l-0.2-0.2c1-0.1,2-0.2,3-0.2l1.5-0.1
					C279.2,29.6,279.7,29.5,280.2,29.5z"/>
			</g>
		</g>
		<g id="Group_11888">
			<path id="Path_182" class="feat_st0" d="M280,50.2l-0.4-3.8l-3.2,0.3l0.4,3.8L273,51l0.1,0.6l3.8-0.4l0.6-0.1l-0.1-0.6l-0.4-3.2
				L279,47l0.4,3.2l0.1,0.6l0.6-0.1l3.8-0.4l-0.1-0.6L280,50.2z"/>
			<path id="Path_183" class="feat_st0" d="M280,50.2c-0.2-1.2-0.4-2.5-0.6-3.8l0.2,0.1c-1.1,0.1-2.1,0.3-3.2,0.4l0.2-0.2
				c0.1,0.6,0.1,1.3,0.2,1.9s0.1,1.3,0.2,1.9v0c0,0.1-0.1,0.2-0.1,0.2l0,0l-1.9,0.2c-0.6,0-1.3,0.1-1.9,0.2l0.1-0.1l0.1,0.6
				l-0.1-0.1l2.2-0.3l2.2-0.3l-0.1,0.2c-0.2-1.3-0.3-2.6-0.5-3.8c0-0.1,0.1-0.2,0.2-0.2c0,0,0,0,0,0h0l1.9-0.2
				c0.1,0,0.2,0.1,0.3,0.2v0c0.2,1.3,0.3,2.6,0.4,3.8l-0.3-0.2c1.5-0.2,2.9-0.3,4.4-0.4l-0.2,0.2l0-0.6l0.2,0.1
				C282.4,50.1,281.2,50.1,280,50.2z M280,50.2c1.3-0.2,2.5-0.4,3.7-0.6c0.1,0,0.2,0,0.2,0.1c0,0,0,0,0,0v0l0.1,0.6
				c0,0.1,0,0.2-0.1,0.2c0,0,0,0,0,0h0c-1.5,0.2-2.9,0.4-4.4,0.5c-0.1,0-0.3-0.1-0.3-0.2c0,0,0,0,0,0c-0.1-1.3-0.3-2.6-0.4-3.8
				l0.3,0.2l-1.9,0.2l0.2-0.2c0.1,1.3,0.2,2.6,0.3,3.8v0c0,0.1-0.1,0.1-0.1,0.2l-2.2,0.2l-2.2,0.2c0,0-0.1,0-0.1-0.1L273,51
				c0,0,0-0.1,0.1-0.1c0.6-0.1,1.2-0.1,1.9-0.2l1.9-0.3l-0.1,0.2c-0.1-0.6-0.2-1.3-0.3-1.9c-0.1-0.6-0.2-1.3-0.2-1.9v0
				c0-0.1,0.1-0.2,0.2-0.2c1.1-0.1,2.1-0.2,3.2-0.3h0c0.1,0,0.2,0.1,0.2,0.1c0,0,0,0,0,0C279.8,47.6,279.9,48.8,280,50.2L280,50.2z"
				/>
		</g>
		<g id="Group_11890">
			<g id="Group_11889">
				<path id="Path_184" class="feat_st0" d="M287.6,30.1c2.2-4.3,0.5-9.5-3.8-11.6c-1.1-0.6-2.4-0.9-3.6-0.9l-0.5-4.2l-4.4,0.5l0.5,4.1
					l-1.9,0.2l-0.5-4.1l-4.4,0.5l0.5,4.1l-6.4,0.7l0.6,5.3l4.5-0.5l2,18.5l-4.5,0.5l0.6,5.3l6.4-0.7l0.1,1.1l0.3,2.4l0,0.3l0.6-0.1
					l-0.5-4.5l-6.4,0.7l-0.4-4.1l4.5-0.5l-2.2-19.7l-4.5,0.5l-0.4-4.1l6.4-0.7l-0.5-4.1l3.1-0.3l0.5,4.1l3.2-0.3l-0.5-4.1l3.1-0.3
					l0.5,4.2h0.3c4.4,0,8,3.6,8,8c0,1.4-0.4,2.7-1,3.9l-0.2,0.3l0.3,0.1c4,1.9,5.8,6.6,3.9,10.7c-1.2,2.6-3.6,4.3-6.4,4.6l-1.9,0.2
					l0.5,4.5l0.6-0.1l0-0.3l-0.3-2.9l-0.1-0.6l1.3-0.1c4.7-0.5,8.2-4.8,7.7-9.5C292,34,290.2,31.4,287.6,30.1L287.6,30.1z"/>
				<path id="Path_185" class="feat_st0" d="M287.6,30.1c0.6-1.3,1-2.7,0.9-4.2c0-0.4-0.1-0.7-0.1-1.1c-0.2-1.1-0.5-2.1-1.1-3
					c-0.4-0.6-0.8-1.2-1.3-1.7c-0.3-0.3-0.5-0.5-0.8-0.7c-0.3-0.2-0.6-0.4-0.9-0.6c-1.2-0.7-2.6-1.1-4.1-1.2c-0.1,0-0.1,0-0.1-0.1
					l-0.5-4.2l0.1,0.1l-4.4,0.5l0.1-0.2l0.5,4.1c0,0.1-0.1,0.2-0.1,0.2c0,0,0,0,0,0l0,0l-1.9,0.2c-0.1,0-0.2-0.1-0.2-0.1l0,0
					l-0.5-4.1l0.2,0.2l-4.4,0.5l0.2-0.2l0.5,4.1c0,0.1-0.1,0.2-0.2,0.2l0,0l-6.4,0.7l0.2-0.2l0.6,5.3l-0.2-0.2l4.5-0.5
					c0.1,0,0.2,0.1,0.2,0.2l0,0l2,18.5c0,0.1,0,0.1-0.1,0.2l0,0l-4.5,0.5l0.1-0.1l0.6,5.3l-0.1-0.1l6.4-0.7c0,0,0.1,0,0.1,0.1
					c0,0,0,0,0,0l0,0l0.4,3.8l-0.1-0.1l0.6-0.1l-0.1,0.1l-0.5-4.5l0.1,0.1l-6.4,0.7c-0.1,0-0.1,0-0.1-0.1l0,0l-0.5-4.1
					c0-0.1,0-0.1,0.1-0.1c0,0,0,0,0,0l4.5-0.5l-0.1,0.1l-2.2-19.7l0.2,0.2l-4.5,0.5c-0.1,0-0.2-0.1-0.2-0.2l-0.5-4.1
					c0-0.1,0.1-0.2,0.2-0.2c0,0,0,0,0,0l0,0l6.4-0.7l-0.2,0.2l-0.5-4.1c0-0.1,0.1-0.2,0.2-0.2c0,0,0,0,0,0l3.1-0.3
					c0.1,0,0.2,0.1,0.2,0.2l0,0l0.5,4.1l-0.2-0.2l3.2-0.3l-0.2,0.2l-0.5-4.1c0-0.1,0.1-0.2,0.2-0.2c0,0,0,0,0,0l0,0l3.1-0.3
					c0.1,0,0.2,0.1,0.2,0.2l0,0l0.5,4.2l-0.2-0.2c0.4,0,0.7,0,1.1,0c0.4,0,0.7,0.1,1.1,0.2c0.7,0.2,1.4,0.4,2.1,0.8
					c2,1.1,3.4,2.9,4,5.1c0.2,0.7,0.3,1.5,0.3,2.2c0,1.5-0.4,2.9-1.2,4.2l-0.1-0.3c1.8,0.8,3.3,2.2,4.2,4c0.9,1.8,1.1,3.9,0.6,5.8
					c-0.5,1.9-1.7,3.6-3.4,4.7c-0.8,0.6-1.7,1-2.7,1.2c-1,0.2-1.9,0.3-2.9,0.4l0.2-0.2l0.5,4.5l-0.2-0.1l0.6-0.1l-0.1,0.2l-0.4-3.8
					c0-0.1,0-0.1,0.1-0.2c1-0.1,1.9-0.2,2.9-0.5c0.9-0.3,1.8-0.7,2.6-1.3c3.2-2.4,4.4-6.7,2.7-10.4C290.7,32.5,289.3,31,287.6,30.1z
					 M287.6,30.1c4.3,2.2,6,7.4,3.9,11.7c-0.6,1.2-1.5,2.3-2.6,3.1c-0.8,0.6-1.7,1.1-2.6,1.4c-1,0.3-1.9,0.4-2.9,0.5l0.1-0.2
					l0.4,3.8c0,0.1-0.1,0.2-0.1,0.2c0,0,0,0,0,0l0,0l-0.6,0.1c-0.1,0-0.2-0.1-0.2-0.1c0,0,0,0,0,0l-0.5-4.5c0-0.1,0.1-0.2,0.2-0.2
					l0,0c1-0.1,1.9-0.2,2.8-0.4c0.9-0.2,1.8-0.6,2.6-1.1c1.6-1.1,2.7-2.7,3.2-4.5c0.5-1.8,0.3-3.8-0.6-5.5c-0.9-1.7-2.3-3-4-3.8
					c-0.1,0-0.2-0.2-0.1-0.3c0,0,0,0,0,0c0.7-1.2,1.1-2.6,1.1-4c0-0.7-0.1-1.4-0.3-2.1c-0.5-2.1-1.9-3.8-3.8-4.8
					c-0.6-0.3-1.3-0.6-1.9-0.8c-0.3-0.1-0.7-0.1-1-0.2c-0.4,0-0.7,0-1.1,0c-0.1,0-0.2-0.1-0.2-0.2v0L279,14l0.2,0.2l-3.1,0.3
					l0.2-0.2l0.5,4.1c0,0.1-0.1,0.2-0.2,0.2c0,0,0,0,0,0l-3.2,0.3c-0.1,0-0.2-0.1-0.2-0.2l0,0l-0.5-4.1l0.2,0.2l-3.1,0.3l0.2-0.2
					l0.5,4.1c0,0.1-0.1,0.2-0.2,0.2l0,0l-6.4,0.7l0.2-0.2l0.4,4.1l-0.2-0.2l4.5-0.5c0.1,0,0.2,0.1,0.2,0.2c0,0,0,0,0,0l2.1,19.7
					c0,0.1,0,0.1-0.1,0.1c0,0,0,0,0,0l-4.5,0.5l0.1-0.1l0.4,4.1l-0.1-0.1l6.4-0.7c0,0,0.1,0,0.1,0.1c0,0,0,0,0,0l0.5,4.5
					c0,0,0,0.1-0.1,0.1c0,0,0,0,0,0l-0.6,0.1c0,0-0.1,0-0.1-0.1c0,0,0,0,0,0l0,0l-0.4-3.8l0.1,0.1l-6.4,0.7c-0.1,0-0.1,0-0.1-0.1
					c0,0,0,0,0,0l-0.6-5.3c0-0.1,0-0.1,0.1-0.1c0,0,0,0,0,0l4.5-0.5l-0.1,0.1L268,24.2l0.2,0.2l-4.5,0.5c-0.1,0-0.2-0.1-0.2-0.2
					l-0.6-5.3c0-0.1,0.1-0.2,0.2-0.2l0,0l6.4-0.7l-0.2,0.2l-0.4-4.1c0-0.1,0.1-0.2,0.2-0.2l4.4-0.5c0.1,0,0.2,0.1,0.2,0.2
					c0,0,0,0,0,0l0,0l0.4,4.1l-0.2-0.1l1.9-0.2l-0.1,0.2l-0.4-4.1c0-0.1,0-0.2,0.1-0.2l4.4-0.5c0.1,0,0.1,0,0.1,0.1c0,0,0,0,0,0l0,0
					l0.5,4.2l-0.1-0.1c1.5,0.1,2.9,0.5,4.2,1.2c0.3,0.2,0.6,0.4,0.9,0.6c0.3,0.2,0.6,0.5,0.8,0.7c0.5,0.5,1,1.1,1.3,1.7
					c0.6,0.9,0.9,2,1.1,3.1c0.1,0.4,0.1,0.7,0.1,1.1C288.6,27.4,288.3,28.8,287.6,30.1z"/>
			</g>
		</g>
	</g>
</g>
<g id="Group_11932">
	<path id="Path_246" d="M213.9,68.4c-4.4,14.4,4.4,29.2,13,40.4c1.8,0.6,3.4,1,5.2,1.5c19.4,5.1,33.4-7.3,38.5-25.1
		c5.1-17.7-0.9-36.2-18.6-42.9c-1.7-0.7-3.5-0.8-5.3-1.5C233.8,45.9,218.2,54,213.9,68.4z"/>
	<path id="Path_247" class="feat_st0" d="M265.5,83.6c-5.1,17.3-19.2,30.3-38.7,24.9s-23.5-24.5-18.2-41.5s19.9-31,38-25.9
		S270.6,66.4,265.5,83.6z"/>
	<g id="Group_11931">
		<path id="Path_248" d="M235.8,105.3c-2.6,0-5.1-0.4-7.6-1.1c-6.7-1.9-11.7-5.6-14.7-11.1c-3.7-6.7-4.2-15.9-1.3-25.1
			c4.4-14.1,16.7-27.2,33.3-22.6c6.1,1.6,11.3,5.7,14.4,11.3c4,7.1,4.7,16.8,2.1,25.8c-2.3,7.8-6.6,14.3-12.1,18.3
			C245.8,103.8,240.8,105.3,235.8,105.3z M212.7,68.2l0.5,0.2c-2.8,8.9-2.3,17.8,1.2,24.3c2.9,5.3,7.6,8.9,14,10.6
			c2.4,0.7,4.9,1,7.5,1.1c13.5,0,21.8-11.2,25-22.1c2.6-8.8,1.8-18.1-2-25c-2.9-5.3-7.9-9.2-13.8-10.8c-16-4.4-27.8,8.3-32,22
			L212.7,68.2z"/>
	</g>
	<g id="Group_11946">
		<path id="Path_263" class="feat_st1" d="M235.6,79.4l11.2-3.2l-2.2-11.1l-0.5-2.8l-0.7-3.5l-0.8-3.9l-7.8,8.3l-7,7.4l0,0l1.9,2.1
			L235.6,79.4z"/>
		<path id="Path_264" class="feat_st1" d="M235.6,79.4l11.1-3.3l0,0.1L242.5,55l0.2,0.1l-14.8,15.7v-0.1L235.6,79.4z M235.6,79.4
			l-7.8-8.6l0,0l0,0l14.7-15.8l0.2-0.2l0,0.2l4.1,21.2l0,0.1l-0.1,0L235.6,79.4z"/>
	</g>
	<g id="Group_11947">
		<path id="Path_265" class="feat_st1" d="M227.6,73.9l-0.1,0.1l3.1,16l0.8,4.1l8.2-8.8l6-6.4L234.9,82L227.6,73.9z"/>
		<path id="Path_266" class="feat_st1" d="M227.6,73.9l-0.1,0.1l0,0l2,10l2,10l-0.2,0l7.1-7.6l7.1-7.5l0.1,0.2l-10.7,3l0,0l0,0
			L227.6,73.9z M227.6,73.9l7.3,8l-0.1,0l10.7-3.1l0.3-0.1l-0.2,0.3l-7.1,7.6l-7.1,7.5l-0.1,0.1l0-0.2l-1.9-10l-1.9-10l0,0
			L227.6,73.9z"/>
	</g>
</g>
<g id="Group_11933">
	<path id="Path_249" class="feat_st1" d="M198.8,333.4c-0.2,0-0.4-0.1-0.5-0.3c-0.7-1.9-1.3-3.9-2-5.8c-0.1-0.3,0.1-0.6,0.3-0.6
		c0.3-0.1,0.6,0.1,0.6,0.3l0,0c0.6,2,1.3,3.9,2,5.8c0.1,0.3,0,0.6-0.3,0.7C198.9,333.4,198.9,333.4,198.8,333.4z M195,321.7
		c-0.2,0-0.4-0.1-0.5-0.4c-0.6-1.9-1.2-3.9-1.7-5.9c-0.1-0.3,0.1-0.6,0.4-0.6c0.3-0.1,0.6,0.1,0.6,0.4c0.6,2,1.1,4,1.7,5.9
		c0.1,0.3-0.1,0.6-0.3,0.6C195.1,321.6,195,321.7,195,321.7L195,321.7z M191.6,309.8c-0.2,0-0.4-0.2-0.5-0.4c-0.5-2-1-4-1.5-6
		c-0.1-0.3,0.1-0.6,0.4-0.6c0.3-0.1,0.6,0.1,0.6,0.4c0.5,2,1,4,1.5,6c0.1,0.3-0.1,0.6-0.4,0.6c0,0,0,0,0,0
		C191.7,309.8,191.7,309.8,191.6,309.8L191.6,309.8z M188.7,297.8c-0.2,0-0.4-0.2-0.5-0.4c-0.4-2-0.9-4-1.3-6
		c-0.1-0.3,0.1-0.5,0.4-0.6c0.3-0.1,0.5,0.1,0.6,0.4l0,0c0.4,2,0.8,4,1.3,6c0.1,0.3-0.1,0.6-0.4,0.6c0,0,0,0,0,0
		C188.8,297.8,188.8,297.8,188.7,297.8L188.7,297.8z M186.3,285.7c-0.2,0-0.5-0.2-0.5-0.4c-0.4-2-0.7-4.1-1.1-6.1
		c0-0.3,0.1-0.5,0.4-0.6c0.3,0,0.5,0.1,0.6,0.4c0.3,2,0.7,4.1,1.1,6.1c0.1,0.3-0.1,0.5-0.4,0.6C186.4,285.7,186.4,285.7,186.3,285.7
		C186.3,285.7,186.3,285.7,186.3,285.7L186.3,285.7z M184.2,273.6c-0.3,0-0.5-0.2-0.5-0.4c-0.3-2-0.6-4.1-0.9-6.1
		c0-0.3,0.2-0.5,0.4-0.6c0.3,0,0.5,0.2,0.6,0.4c0.3,2,0.6,4.1,0.9,6.1C184.7,273.3,184.5,273.5,184.2,273.6
		C184.2,273.6,184.2,273.6,184.2,273.6L184.2,273.6z M179.6,224.5c-0.3,0-0.5-0.2-0.5-0.5c-0.1-2.8-0.1-4.7-0.1-5.6
		c0-0.4,0-0.6,0-0.6c0-0.3,0.2-0.5,0.5-0.5c0.3,0,0.5,0.2,0.5,0.5v0c0,0,0,0.2,0,0.6c0,0.9,0,2.8,0.1,5.6
		C180.1,224.3,179.9,224.5,179.6,224.5C179.6,224.5,179.6,224.5,179.6,224.5L179.6,224.5z"/>
</g>
<g id="Group_11941">
	<g id="Group_11935">
		<path id="Path_250" class="feat_st1" d="M154.4,236.9c7.6-1.9,9.6-4.3,21.2-12.8c7.3-5.4,26.9-9.1,33-1.8c2.6,3.1-13.9,5.1-17.7,11.3
			c-4.3,7.1,38.1-14.2,41.1-9.1c2,3.3-1.3,7.9-1.3,7.9c-0.2,12.1-22,39.1-69.7,42.2c-17.7,1.2-71,3.4-71,3.4l-3.2-45.4
			C86.8,232.6,139,240.9,154.4,236.9z"/>
		<g id="Group_11934">
			<path id="Path_251" d="M89.9,278.6c-0.3,0-0.5-0.2-0.5-0.5l-3.2-45.4c0-0.3,0.2-0.5,0.5-0.5c0,0,0.1,0,0.1,0
				c0.5,0.1,52.3,8.2,67.4,4.3c6.1-1.6,8.5-3.3,15.5-8.6c1.6-1.2,3.4-2.5,5.5-4.1c7.2-5.3,27.3-9.4,33.6-1.7
				c0.3,0.4,0.5,0.9,0.4,1.3c-0.4,1.4-3,2.4-6.6,3.8c-4.3,1.7-9.6,3.7-11.4,6.8c-0.3,0.4-0.2,0.6-0.2,0.6c0.9,0.9,9.9-2.4,16.5-4.8
				c13.9-5.1,23.2-8.2,24.8-5.4c2,3.3-0.7,7.5-1.2,8.3c-0.2,6-5.6,15.9-17.3,24.7c-9.5,7.2-26.4,16.1-53,17.9
				C143.5,276.4,90.5,278.6,89.9,278.6L89.9,278.6z M87.3,233.2l3.1,44.3c5.5-0.2,53.9-2.3,70.5-3.3c26.3-1.7,43-10.6,52.4-17.7
				c11.5-8.7,16.8-18.4,16.9-24.1c0-0.1,0-0.2,0.1-0.3c0,0,3-4.3,1.2-7.3c-1.3-2.3-14.2,2.4-23.6,5.8c-11.7,4.2-16.6,5.8-17.7,4.5
				c-0.3-0.4-0.3-1,0.2-1.8c2-3.4,7.5-5.5,11.9-7.2c2.8-1.1,5.7-2.2,6-3.1c0-0.1,0-0.2-0.1-0.4c-6-7.3-25.3-3.2-32.3,1.9
				c-2.1,1.6-3.9,2.9-5.5,4.1c-7,5.2-9.6,7.2-15.9,8.8l-0.1-0.5l0.1,0.5C139.9,241.2,93.6,234.2,87.3,233.2L87.3,233.2z"/>
		</g>
	</g>
	<g id="Group_11936">
		<path id="Path_252" d="M200.4,246.9c-0.3,0-0.5-0.2-0.5-0.5c0-0.2,0.2-0.4,0.4-0.5c12.8-3.4,24.5-11.6,24.6-11.7
			c0.2-0.2,0.6-0.1,0.7,0.1c0.2,0.2,0.1,0.6-0.1,0.7l0,0c-0.1,0.1-12,8.4-25,11.9C200.5,246.9,200.4,246.9,200.4,246.9z"/>
	</g>
	<g id="Group_11937">
		<path id="Path_253" d="M204.9,253.9c-0.3,0-0.5-0.2-0.5-0.5c0-0.2,0.2-0.4,0.4-0.5c9.8-2.1,13.8-6.2,13.8-6.2
			c0.2-0.2,0.5-0.2,0.7,0c0.2,0.2,0.2,0.5,0,0.7l0,0c-0.2,0.2-4.2,4.3-14.3,6.5C205,253.9,204.9,253.9,204.9,253.9z"/>
	</g>
	<g id="Group_11938">
		<path id="Path_254" d="M196,254.8c-0.3,0-0.5-0.2-0.5-0.5c0-0.3,0.2-0.5,0.5-0.5c1.2-0.1,2.3-1,2.5-2.2c0.1-0.3,0.3-0.4,0.6-0.4
			c0.3,0.1,0.4,0.3,0.4,0.6C199.1,253.5,197.7,254.7,196,254.8L196,254.8z"/>
	</g>
	<g id="Group_11939">
		<path id="Path_255" d="M198.2,260.9c-0.3,0-0.5-0.2-0.5-0.5c0-0.2,0.1-0.4,0.4-0.5c2.2-0.8,2.4-2.3,2.4-2.3c0-0.3,0.3-0.5,0.6-0.5
			c0.3,0,0.5,0.3,0.5,0.6c0,0.1-0.2,2.2-3.1,3.2C198.4,260.9,198.3,260.9,198.2,260.9z"/>
	</g>
	<g id="Group_11940">
		<path id="Path_256" d="M193,246.2c-0.3,0-0.5-0.2-0.5-0.5c0-0.3,0.2-0.5,0.4-0.5c1.2-0.2,2.2-1.1,2.4-2.3c0-0.3,0.3-0.5,0.6-0.4
			s0.5,0.3,0.4,0.6C196,244.7,194.7,246,193,246.2C193,246.2,193,246.2,193,246.2z"/>
	</g>
</g>
<path id="Path_258" class="feat_st0" d="M113.8,287.9c0-0.1,5.3-30.5,10.4-62.5c-29.8,0-40.9-2.1-51.4-13.2c-26.2-27.6-5-92.1-31.4-85.5
	c-20.3,5.1-50.7,68.2-19.7,121.8C39.3,278.7,78.2,285.4,113.8,287.9z"/>
<g id="Group_11942">
	<path id="Path_259" d="M113.8,288.4L113.8,288.4c-16.5-1.2-41.4-3-62.2-12.8c-10.6-4.8-19.9-12.1-27-21.3
		c-7.9-10.3-12.9-23.2-14.9-38.5c0-0.3,0.2-0.5,0.4-0.6c0.3,0,0.5,0.2,0.6,0.4c8.6,64.9,67.7,69.1,103.1,71.6c0.3,0,0.5,0.3,0.5,0.5
		C114.4,288.2,114.1,288.4,113.8,288.4L113.8,288.4z"/>
</g>
<g id="Group_11943">
	<path id="Path_260" d="M124.2,226c-29.3,0-40.9-2-51.8-13.4c-12.8-13.5-14.1-35.6-15.2-53.4c-0.8-13.9-1.5-25.8-7.1-30.3
		c-2.2-1.7-5-2.3-8.6-1.7c-0.3,0.1-0.5-0.1-0.6-0.4c-0.1-0.3,0.1-0.5,0.4-0.6c0,0,0,0,0,0c3.9-0.7,7,0,9.4,1.9
		c6,4.8,6.7,16.9,7.5,31c1.1,18.5,2.4,39.5,14.9,52.8c10.6,11.2,22,13.1,51,13.1c0.3,0,0.5,0.2,0.5,0.5S124.5,226,124.2,226z"/>
</g>
<g id="Group_11944">
	<path id="Path_261" class="feat_st2" d="M91.9,218.7c-0.9,25-0.1,51.4,3.9,72.9l34.8-1.9c-0.2-1.8-2.7-54.2-1-69.8
		C122,219.7,106.5,219.1,91.9,218.7z"/>
	<path id="Path_262" d="M95.8,292.1c-0.2,0-0.5-0.2-0.5-0.4c-4.5-24.5-4.6-53.2-3.9-73c0-0.3,0.2-0.5,0.5-0.5c0,0,0,0,0,0
		c7,0.2,14.2,0.4,20.5,0.6c7.1,0.2,13.2,0.4,17.1,0.5c0.3,0,0.5,0.2,0.5,0.5c0,0,0,0,0,0c-1.7,15.5,0.8,67.9,1,69.7
		c0,0.3-0.2,0.5-0.4,0.6c0,0,0,0,0,0L95.8,292.1L95.8,292.1z M92.4,219.2c-0.7,19.6-0.6,47.7,3.8,71.8l33.8-1.8
		c-0.4-5.9-2.5-53.4-1-68.9c-3.9-0.1-9.8-0.3-16.5-0.5C106.2,219.6,99.2,219.4,92.4,219.2z"/>
</g>
</svg>
