<svg id="eujp9tnmtiid1" xmlns="http://www.w3.org/2000/svg" xmlns:xlink="http://www.w3.org/1999/xlink" viewBox="0 0 841.89 595.28" shape-rendering="geometricPrecision" text-rendering="geometricPrecision"><style><![CDATA[#eujp9tnmtiid21_to {animation: eujp9tnmtiid21_to__to 3000ms linear infinite normal forwards}@keyframes eujp9tnmtiid21_to__to { 0% {offset-distance: 0%;animation-timing-function: cubic-bezier(0.25,1,0.25,1)} 46.666667% {offset-distance: 50%;animation-timing-function: cubic-bezier(0.25,1,0.25,1)} 100% {offset-distance: 100%} }#eujp9tnmtiid21_tr {animation: eujp9tnmtiid21_tr__tr 3000ms linear infinite normal forwards}@keyframes eujp9tnmtiid21_tr__tr { 0% {transform: rotate(-9.787132deg);animation-timing-function: cubic-bezier(0.25,1,0.25,1)} 46.666667% {transform: rotate(65.305945deg);animation-timing-function: cubic-bezier(0.25,1,0.25,1)} 86.666667% {transform: rotate(164.402850deg)} 100% {transform: rotate(155.341222deg)} }]]></style><path id="eujp9tnmtiid2" d="M469.15,282.90L618.58,282.90C622.19,282.90,625.12,285.83,625.12,289.44L625.12,408.49C625.12,412.10,622.19,415.03,618.58,415.03L469.15,415.03C465.54,415.03,462.61,412.10,462.61,408.49L462.61,289.44C462.61,285.83,465.54,282.90,469.15,282.90Z" fill="rgb(134,95,255)" stroke="none" stroke-width="1"/><path id="eujp9tnmtiid3" d="M622.75,287.57C622.75,287.57,477.82,284.75,473.27,291.46C468.72,298.17,472.64,348.83,476.44,359.18" fill="none" stroke="rgb(0,0,0)" stroke-width="1" stroke-miterlimit="10"/><ellipse id="eujp9tnmtiid4" rx="78.24" ry="11.32" transform="matrix(1 0 0 1 295.25 425.529997)" opacity="0.7" fill="rgb(222,212,255)" stroke="none" stroke-width="1"/><ellipse id="eujp9tnmtiid5" rx="78.24" ry="11.32" transform="matrix(1 0 0 1 544.480002 429.920002)" opacity="0.7" fill="rgb(222,212,255)" stroke="none" stroke-width="1"/><g id="eujp9tnmtiid6"><path id="eujp9tnmtiid7" d="M299.89,276.73C299.83,276.71,299.78,276.69,299.73,276.66C299.40,276.47,299.29,276.05,299.48,275.73C299.50,275.70,301.05,273.04,303.98,268.77C304.19,268.46,304.62,268.38,304.93,268.59C305.24,268.80,305.32,269.23,305.11,269.54C302.21,273.76,300.68,276.39,300.66,276.41C300.50,276.69,300.18,276.81,299.89,276.73ZM309.98,262.06C309.90,262.04,309.82,262,309.75,261.95C309.45,261.72,309.39,261.29,309.62,260.99C311.26,258.83,312.98,256.66,314.73,254.54C314.97,254.25,315.40,254.21,315.69,254.45C315.98,254.69,316.02,255.12,315.78,255.41C314.05,257.51,312.34,259.67,310.71,261.82C310.53,262.05,310.24,262.14,309.98,262.06ZM321.31,248.39C321.21,248.36,321.12,248.31,321.04,248.24C320.76,247.99,320.74,247.56,320.99,247.28C322.82,245.25,324.71,243.23,326.61,241.28C326.87,241.01,327.30,241,327.57,241.27C327.84,241.53,327.85,241.96,327.58,242.23C325.69,244.17,323.81,246.17,322,248.19C321.82,248.39,321.55,248.46,321.31,248.39ZM333.74,235.73C333.62,235.70,333.51,235.63,333.42,235.54C333.16,235.26,333.18,234.83,333.45,234.58C335.46,232.70,337.52,230.86,339.58,229.10C339.87,228.86,340.30,228.89,340.54,229.17C340.78,229.46,340.75,229.89,340.47,230.13C338.43,231.87,336.39,233.70,334.39,235.57C334.21,235.74,333.96,235.80,333.74,235.73ZM347.26,224.26C347.12,224.22,347,224.14,346.90,224.02C346.67,223.72,346.73,223.29,347.03,223.06C349.22,221.38,351.45,219.75,353.67,218.22C353.98,218.01,354.40,218.08,354.62,218.39C354.83,218.70,354.76,219.12,354.45,219.34C352.25,220.86,350.03,222.48,347.87,224.14C347.69,224.28,347.46,224.32,347.26,224.26ZM546.42,275.60C546.22,275.54,546.05,275.40,545.97,275.20C544.97,272.69,543.87,270.19,542.71,267.76C542.55,267.42,542.69,267.01,543.03,266.85C543.37,266.69,543.78,266.83,543.94,267.17C545.12,269.63,546.23,272.16,547.24,274.70C547.38,275.05,547.21,275.45,546.86,275.59C546.71,275.63,546.56,275.64,546.42,275.60ZM361.89,214.25C361.73,214.21,361.58,214.10,361.49,213.95C361.30,213.63,361.40,213.21,361.72,213.01C364.08,211.58,366.48,210.22,368.87,208.95C369.20,208.77,369.61,208.90,369.79,209.23C369.97,209.56,369.84,209.97,369.51,210.15C367.15,211.40,364.77,212.75,362.43,214.17C362.25,214.28,362.06,214.30,361.89,214.25ZM538.67,259.68C538.50,259.63,538.36,259.53,538.26,259.37C536.90,257.04,535.45,254.72,533.93,252.48C533.72,252.17,533.80,251.75,534.11,251.53C534.42,251.32,534.85,251.40,535.06,251.71C536.59,253.97,538.06,256.31,539.44,258.68C539.63,259,539.52,259.42,539.19,259.61C539.03,259.70,538.84,259.72,538.67,259.68ZM377.57,206.04C377.38,205.99,377.22,205.85,377.13,205.66C376.98,205.32,377.13,204.91,377.48,204.76C379.99,203.64,382.55,202.60,385.09,201.66C385.44,201.53,385.83,201.71,385.97,202.06C386.10,202.41,385.92,202.80,385.57,202.94C383.06,203.87,380.53,204.90,378.04,206.01C377.88,206.07,377.72,206.08,377.57,206.04ZM528.67,245.07C528.54,245.03,528.41,244.96,528.32,244.84C526.64,242.73,524.86,240.65,523.04,238.66C522.79,238.38,522.80,237.95,523.08,237.70C523.36,237.45,523.79,237.46,524.04,237.74C525.88,239.75,527.68,241.86,529.38,243.99C529.62,244.28,529.57,244.71,529.27,244.95C529.10,245.09,528.87,245.13,528.67,245.07ZM394.20,199.99C393.98,199.93,393.79,199.76,393.73,199.52C393.63,199.16,393.84,198.78,394.20,198.68C396.84,197.93,399.52,197.27,402.17,196.71C402.54,196.63,402.90,196.87,402.98,197.24C403.06,197.61,402.82,197.97,402.45,198.05C399.83,198.60,397.18,199.26,394.57,200C394.44,200.02,394.32,200.02,394.20,199.99ZM516.65,232.08C516.55,232.05,516.45,232,516.37,231.92C514.41,230.08,512.35,228.28,510.26,226.56C509.97,226.32,509.93,225.89,510.16,225.60C510.40,225.31,510.83,225.27,511.12,225.50C513.24,227.23,515.32,229.06,517.30,230.92C517.57,231.18,517.59,231.61,517.33,231.88C517.15,232.08,516.88,232.14,516.65,232.08ZM411.52,196.45C411.26,196.38,411.06,196.16,411.03,195.88C410.98,195.51,411.25,195.17,411.62,195.12C414.33,194.78,417.08,194.54,419.80,194.39C420.18,194.37,420.50,194.66,420.52,195.03C420.54,195.41,420.25,195.73,419.88,195.75C417.20,195.89,414.48,196.13,411.80,196.47C411.69,196.48,411.60,196.47,411.52,196.45ZM502.91,220.92C502.84,220.90,502.77,220.87,502.70,220.82C500.51,219.28,498.22,217.78,495.91,216.35C495.59,216.15,495.49,215.73,495.69,215.41C495.89,215.09,496.31,214.99,496.63,215.19C498.97,216.63,501.28,218.15,503.50,219.70C503.81,219.92,503.88,220.34,503.67,220.65C503.48,220.90,503.18,221,502.91,220.92ZM429.17,195.62C428.88,195.54,428.66,195.26,428.67,194.94C428.68,194.56,429,194.27,429.37,194.28C432.08,194.36,434.83,194.55,437.56,194.82C437.93,194.86,438.21,195.19,438.17,195.57C438.13,195.94,437.80,196.22,437.42,196.18C434.72,195.91,432,195.73,429.32,195.64C429.28,195.65,429.22,195.64,429.17,195.62ZM487.78,211.73C487.73,211.72,487.69,211.70,487.65,211.68C485.27,210.44,482.81,209.24,480.33,208.12C479.99,207.97,479.83,207.56,479.99,207.22C480.14,206.88,480.55,206.72,480.89,206.88C483.39,208.01,485.88,209.22,488.28,210.47C488.61,210.64,488.74,211.06,488.57,211.39C488.42,211.68,488.08,211.81,487.78,211.73ZM471.62,204.52C471.60,204.51,471.58,204.51,471.56,204.50C469.05,203.55,466.46,202.66,463.87,201.83C463.51,201.72,463.31,201.33,463.43,200.97C463.54,200.61,463.96,200.41,464.29,200.53C466.90,201.36,469.51,202.27,472.05,203.22C472.40,203.35,472.58,203.75,472.45,204.10C472.31,204.43,471.95,204.61,471.62,204.52ZM446.74,197.50C446.40,197.41,446.19,197.07,446.25,196.72C446.32,196.35,446.67,196.10,447.04,196.17C449.69,196.65,452.40,197.24,455.07,197.90C455.43,197.99,455.66,198.36,455.57,198.73C455.48,199.10,455.11,199.32,454.74,199.23C452.10,198.57,449.42,197.99,446.80,197.52C446.78,197.51,446.76,197.51,446.74,197.50Z" fill="rgb(0,0,0)" stroke="none" stroke-width="1"/><path id="eujp9tnmtiid8" d="M547.18,277.08C547.16,277.07,547.13,277.07,547.11,277.06L541.81,274.95C541.46,274.81,541.29,274.41,541.43,274.07C541.57,273.72,541.96,273.54,542.31,273.69L547.02,275.56L549.17,271.11C549.33,270.77,549.74,270.63,550.08,270.79C550.42,270.95,550.56,271.36,550.40,271.70L547.98,276.72C547.84,277.02,547.50,277.16,547.18,277.08Z" fill="rgb(0,0,0)" stroke="none" stroke-width="1"/></g><g id="eujp9tnmtiid9" display="none"><g id="eujp9tnmtiid10"><g id="eujp9tnmtiid11"><path id="eujp9tnmtiid12" d="M394.17,224.57C391.72,222.99,389.49,221.08,387.54,218.91C382.23,213.02,379.77,206.40,380.25,199.24C380.83,190.53,385.96,181.46,394.34,174.36C407.18,163.46,427,158.38,440.16,172.97C445.06,178.29,447.55,185.40,447.06,192.61C446.50,201.88,441.35,211.61,433.28,218.64C426.28,224.74,418.16,228.34,410.43,228.80C404.70,229.16,399,227.68,394.17,224.57ZM394.72,174.80L395.10,175.25C386.97,182.15,381.99,190.92,381.43,199.32C380.97,206.15,383.33,212.48,388.42,218.13C390.33,220.28,392.52,222.16,394.93,223.72C407.88,231.97,422.73,226.28,432.51,217.76C440.35,210.94,445.35,201.51,445.89,192.55C446.36,185.65,443.97,178.85,439.28,173.76C426.65,159.75,407.51,164.71,395.09,175.26L394.72,174.80Z" fill="rgb(0,0,0)" stroke="none" stroke-width="1"/></g></g><g id="eujp9tnmtiid13" transform="matrix(1 0 0 1 1 -1)"><g id="eujp9tnmtiid14"><path id="eujp9tnmtiid15" d="M410.47,200.18L423.17,203.87L423.08,203.92L431.99,180.99L432.15,181.17L408.30,187.22L408.36,187.13L410.47,200.18ZM410.47,200.18L408.20,187.15L408.19,187.08L408.26,187.06L432.08,180.90L432.34,180.83L432.24,181.08L423.22,203.97L423.19,204.04L423.12,204.02L410.47,200.18Z" fill="rgb(255,255,255)" stroke="none" stroke-width="1"/></g><g id="eujp9tnmtiid16"><path id="eujp9tnmtiid17" d="M406.08,190.05L405.91,190.04L399.16,207.31L397.43,211.72L410.67,208.33L420.29,205.86L408.13,202.25L406.08,190.05Z" fill="rgb(255,255,255)" stroke="none" stroke-width="1"/></g></g></g><path id="eujp9tnmtiid18" d="M372.97,282.90L223.54,282.90C219.93,282.90,217,285.83,217,289.44L217,408.49C217,412.10,219.93,415.03,223.54,415.03L372.97,415.03C376.58,415.03,379.51,412.10,379.51,408.49L379.51,289.44C379.50,285.83,376.58,282.90,372.97,282.90Z" fill="rgb(64,123,255)" stroke="none" stroke-width="1"/><path id="eujp9tnmtiid19" d="M372.97,282.90L223.54,282.90C219.93,282.90,217,285.83,217,289.44L217,408.49C217,412.10,219.93,415.03,223.54,415.03L372.97,415.03C376.58,415.03,379.51,412.10,379.51,408.49L379.51,289.44C379.50,285.83,376.58,282.90,372.97,282.90Z" fill="rgb(182,156,255)" stroke="none" stroke-width="1"/><path id="eujp9tnmtiid20" d="M219.78,287.83C219.78,287.83,364.69,284.03,369.28,290.72C373.87,297.40,370.30,348.08,366.57,358.46" fill="none" stroke="rgb(0,0,0)" stroke-width="1" stroke-miterlimit="10"/><g id="eujp9tnmtiid21_to" style="offset-path:path('M290.362990,325.197307C307.447395,198.138131,403.040197,215.849689,430.998580,212.332167C500.056146,215.003553,551.347191,234.492647,550.497828,346.664617');offset-rotate:0deg"><g id="eujp9tnmtiid21_tr" transform="rotate(-9.787132)"><g id="eujp9tnmtiid21" transform="translate(-321.794821,-267.752817)"><g id="eujp9tnmtiid22"><path id="eujp9tnmtiid23" d="M276.15,262.87C271.17,279.29,281.19,296.15,290.95,308.82C293.03,309.47,294.88,309.97,296.88,310.49C319,316.26,334.92,302.14,340.69,281.96C346.46,261.78,339.63,240.73,319.56,233.08C317.60,232.33,315.63,232.13,313.57,231.33C298.87,237.21,281.13,246.45,276.15,262.87Z" fill="rgb(0,0,0)" stroke="none" stroke-width="1"/><path id="eujp9tnmtiid24" d="M334.97,280.23C329.21,299.92,313.12,314.78,290.95,308.61C268.78,302.43,264.23,280.75,270.19,261.36C276.15,241.97,292.82,226.02,313.49,231.82C334.17,237.61,340.73,260.53,334.97,280.23Z" fill="rgb(110,49,255)" stroke="none" stroke-width="1"/><g id="eujp9tnmtiid25"><path id="eujp9tnmtiid26" d="M301.10,304.91C298.18,304.90,295.28,304.49,292.47,303.69C284.82,301.58,279.20,297.31,275.76,291.01C271.57,283.35,271.03,272.95,274.28,262.46C279.26,246.37,293.24,231.44,312.18,236.68C319.17,238.54,325.09,243.19,328.55,249.54C333.06,257.66,333.94,268.64,330.90,278.89C328.27,287.79,323.36,295.19,317.09,299.73C312.45,303.13,306.84,304.94,301.10,304.91ZM274.83,262.64L275.39,262.81C272.24,272.99,272.75,283.07,276.78,290.45C280.07,296.46,285.45,300.53,292.78,302.56C295.54,303.35,298.40,303.75,301.27,303.77C316.63,303.77,326.09,291,329.77,278.56C332.72,268.60,331.87,257.96,327.52,250.10C324.21,244.03,318.54,239.58,311.86,237.80C293.67,232.77,280.20,247.23,275.39,262.80L274.83,262.64Z" fill="rgb(0,0,0)" stroke="none" stroke-width="1"/></g></g><g id="eujp9tnmtiid27" transform="matrix(1 0 0 1 1 -1)"><g id="eujp9tnmtiid28"><path id="eujp9tnmtiid29" d="M301.05,275.20L313.76,271.56L311.28,258.96L310.66,255.79L309.88,251.84L309.01,247.43L300.15,256.89L292.21,265.37L292.19,265.39L294.33,267.77L301.05,275.20Z" fill="rgb(255,255,255)" stroke="none" stroke-width="1"/><path id="eujp9tnmtiid30" d="M301.05,275.20L313.74,271.49L313.69,271.58L308.88,247.45L309.11,247.52L292.25,265.43L292.25,265.33L301.05,275.20ZM301.05,275.20L292.14,265.43L292.09,265.38L292.14,265.33L308.92,247.34L309.10,247.15L309.15,247.41L313.84,271.56L313.85,271.63L313.78,271.65L301.05,275.20Z" fill="rgb(255,255,255)" stroke="none" stroke-width="1"/></g><g id="eujp9tnmtiid31"><path id="eujp9tnmtiid32" d="M291.91,269.02L291.76,269.10L295.34,287.29L296.25,291.94L305.60,281.97L312.39,274.73L300.20,278.22L291.91,269.02Z" fill="rgb(255,255,255)" stroke="none" stroke-width="1"/><path id="eujp9tnmtiid33" d="M291.91,269.02L291.76,269.10L291.76,269.10L294.08,280.51L296.36,291.92L296.18,291.87L304.22,283.24L312.30,274.65L312.41,274.83L300.21,278.29L300.16,278.30L300.13,278.26L291.91,269.02ZM291.91,269.02L300.25,278.16L300.17,278.14L312.35,274.62L312.73,274.51L312.46,274.80L304.41,283.43L296.33,292.02L296.19,292.17L296.15,291.97L293.93,280.54L291.76,269.11L291.76,269.11L291.91,269.02Z" fill="rgb(255,255,255)" stroke="none" stroke-width="1"/></g></g></g></g></g><path id="eujp9tnmtiid34" d="M217.40,283.47C217.40,283.47,213.35,284.82,213.35,287.30C213.35,289.78,205.18,393.63,213.35,410.30C217.44,416.76,222.87,418.41,222.87,418.41C222.87,418.41,333.90,432.47,362.74,433.10C382.19,433.53,372.55,304.56,372.55,304.56C372.79,304.80,372.45,297.40,368.33,296.66C366.58,296.34,217.40,283.47,217.40,283.47Z" fill="rgb(148,99,255)" stroke="none" stroke-width="1"/><g id="eujp9tnmtiid35"><path id="eujp9tnmtiid36" d="M225.92,287.81L220.91,287.30C220.63,287.27,220.39,287.47,220.36,287.75C220.33,288.02,220.53,288.27,220.80,288.30L225.82,288.81L225.87,288.81C226.13,288.81,226.34,288.62,226.37,288.36C226.40,288.08,226.20,287.84,225.92,287.81ZM236.96,288.93L231.95,288.42C231.66,288.39,231.43,288.60,231.40,288.87C231.37,289.15,231.57,289.39,231.84,289.42L236.86,289.93L236.91,289.93C237.17,289.93,237.38,289.74,237.41,289.48C237.44,289.21,237.24,288.96,236.96,288.93ZM248,290.06L242.99,289.55C242.70,289.51,242.47,289.72,242.44,289.99C242.41,290.27,242.61,290.51,242.88,290.54L247.90,291.05L247.95,291.05C248.21,291.05,248.42,290.86,248.45,290.60C248.48,290.33,248.28,290.08,248,290.06ZM259.04,291.18L254.02,290.67C253.75,290.64,253.50,290.84,253.48,291.11C253.45,291.39,253.65,291.63,253.92,291.66L258.94,292.17L258.99,292.17C259.25,292.17,259.46,291.98,259.49,291.73C259.52,291.45,259.32,291.21,259.04,291.18ZM270.08,292.30L265.06,291.79C264.79,291.76,264.55,291.96,264.52,292.24C264.49,292.51,264.69,292.76,264.96,292.78L269.98,293.29C270,293.30,270.02,293.30,270.03,293.30C270.29,293.30,270.50,293.10,270.53,292.85C270.56,292.57,270.36,292.33,270.08,292.30ZM281.12,293.42L276.10,292.91C275.83,292.88,275.59,293.08,275.56,293.36C275.53,293.63,275.73,293.88,276,293.91L281.02,294.42L281.07,294.42C281.33,294.42,281.54,294.23,281.57,293.97C281.60,293.69,281.40,293.45,281.12,293.42ZM292.16,294.54L287.14,294.03C286.87,294.01,286.62,294.21,286.60,294.48C286.57,294.76,286.77,295,287.04,295.03L292.06,295.54L292.11,295.54C292.37,295.54,292.58,295.35,292.61,295.09C292.64,294.82,292.44,294.57,292.16,294.54ZM303.20,295.67L298.18,295.16C297.90,295.13,297.66,295.33,297.64,295.60C297.61,295.88,297.81,296.12,298.08,296.15L303.10,296.66L303.15,296.66C303.41,296.66,303.62,296.47,303.65,296.21C303.68,295.94,303.48,295.69,303.20,295.67ZM314.24,296.79L309.22,296.28C308.94,296.25,308.70,296.45,308.68,296.72C308.65,297,308.85,297.25,309.12,297.27L314.14,297.78C314.16,297.78,314.18,297.79,314.19,297.79C314.45,297.79,314.66,297.59,314.69,297.34C314.72,297.06,314.52,296.82,314.24,296.79ZM325.28,297.91L320.27,297.40C319.98,297.38,319.74,297.57,319.72,297.85C319.69,298.12,319.89,298.37,320.16,298.39L325.18,298.90C325.20,298.91,325.22,298.91,325.23,298.91C325.49,298.91,325.70,298.71,325.73,298.46C325.76,298.18,325.56,297.94,325.28,297.91ZM336.32,299.03L331.30,298.52C331.03,298.50,330.78,298.70,330.76,298.97C330.73,299.24,330.93,299.49,331.20,299.52L336.22,300.03L336.27,300.03C336.53,300.03,336.74,299.84,336.77,299.58C336.80,299.30,336.60,299.06,336.32,299.03ZM347.36,300.15L342.34,299.64C342.07,299.62,341.82,299.82,341.80,300.09C341.77,300.37,341.97,300.61,342.24,300.64L347.26,301.15L347.31,301.15C347.57,301.15,347.78,300.96,347.81,300.70C347.84,300.43,347.64,300.18,347.36,300.15ZM358.40,301.28L353.38,300.77C353.11,300.74,352.86,300.94,352.84,301.21C352.81,301.49,353.01,301.73,353.28,301.76L358.31,302.27L358.42,301.78L358.40,301.28ZM363.68,304.81C363.54,304.57,363.23,304.49,362.99,304.63C362.76,304.78,362.68,305.08,362.82,305.32C363.42,306.34,363.74,307.50,363.74,308.66L363.74,309.93C363.74,310.21,363.96,310.43,364.24,310.43C364.51,310.43,364.74,310.21,364.74,309.93L364.74,308.66C364.74,307.32,364.37,305.99,363.68,304.81ZM364.24,315.48C363.96,315.48,363.74,315.71,363.74,315.98L363.74,321.03C363.74,321.30,363.96,321.53,364.24,321.53C364.51,321.53,364.74,321.30,364.74,321.03L364.74,315.98C364.74,315.71,364.51,315.48,364.24,315.48ZM364.24,326.58C363.96,326.58,363.74,326.80,363.74,327.08L363.74,332.12C363.74,332.40,363.96,332.62,364.24,332.62C364.51,332.62,364.74,332.40,364.74,332.12L364.74,327.08C364.74,326.80,364.51,326.58,364.24,326.58ZM364.24,337.68C363.96,337.68,363.74,337.90,363.74,338.18L363.74,343.22C363.74,343.50,363.96,343.72,364.24,343.72C364.51,343.72,364.74,343.50,364.74,343.22L364.74,338.18C364.74,337.90,364.51,337.68,364.24,337.68ZM364.24,348.77C363.96,348.77,363.74,349,363.74,349.27L363.74,354.32C363.74,354.59,363.96,354.82,364.24,354.82C364.51,354.82,364.74,354.59,364.74,354.32L364.74,349.27C364.74,349,364.51,348.77,364.24,348.77ZM364.24,359.87C363.96,359.87,363.74,360.09,363.74,360.37L363.74,365.41C363.74,365.69,363.96,365.91,364.24,365.91C364.51,365.91,364.74,365.69,364.74,365.41L364.74,360.37C364.74,360.09,364.51,359.87,364.24,359.87ZM364.24,370.97C363.96,370.97,363.74,371.19,363.74,371.47L363.74,376.51C363.74,376.79,363.96,377.01,364.24,377.01C364.51,377.01,364.74,376.79,364.74,376.51L364.74,371.47C364.74,371.19,364.51,370.97,364.24,370.97ZM364.24,382.06C363.96,382.06,363.74,382.29,363.74,382.56L363.74,387.61C363.74,387.88,363.96,388.11,364.24,388.11C364.51,388.11,364.74,387.88,364.74,387.61L364.74,382.56C364.74,382.29,364.51,382.06,364.24,382.06ZM364.24,393.16C363.96,393.16,363.74,393.38,363.74,393.66L363.74,398.71C363.74,398.98,363.96,399.21,364.24,399.21C364.51,399.21,364.74,398.98,364.74,398.71L364.74,393.66C364.74,393.38,364.51,393.16,364.24,393.16ZM364.24,404.26C363.96,404.26,363.74,404.48,363.74,404.76L363.74,409.80C363.74,410.08,363.96,410.30,364.24,410.30C364.51,410.30,364.74,410.08,364.74,409.80L364.74,404.76C364.74,404.48,364.51,404.26,364.24,404.26ZM217.45,411.05C217.43,411.05,217.42,411.04,217.40,411.04C217.49,411.32,217.60,411.59,217.73,411.85C217.80,411.79,217.83,411.72,217.85,411.64C217.90,411.37,217.72,411.10,217.45,411.05ZM228.44,412.19L223.42,411.68C223.15,411.65,222.90,411.85,222.88,412.13C222.85,412.40,223.05,412.65,223.32,412.67L228.34,413.18C228.36,413.19,228.38,413.19,228.39,413.19C228.65,413.19,228.86,412.99,228.89,412.74C228.92,412.46,228.72,412.22,228.44,412.19ZM239.48,413.31L234.46,412.80C234.19,412.77,233.94,412.97,233.92,413.25C233.89,413.52,234.09,413.77,234.36,413.80L239.38,414.31L239.43,414.31C239.69,414.31,239.90,414.12,239.93,413.86C239.96,413.58,239.76,413.34,239.48,413.31ZM250.52,414.43L245.50,413.92C245.23,413.90,244.98,414.10,244.96,414.37C244.93,414.65,245.13,414.89,245.40,414.92L250.42,415.43L250.47,415.43C250.73,415.43,250.94,415.24,250.97,414.98C251,414.71,250.80,414.46,250.52,414.43ZM261.56,415.56L256.54,415.05C256.27,415.02,256.02,415.22,256,415.49C255.97,415.77,256.17,416.01,256.44,416.04L261.46,416.55L261.51,416.55C261.77,416.55,261.98,416.36,262.01,416.10C262.04,415.83,261.84,415.58,261.56,415.56ZM272.60,416.68L267.58,416.17C267.30,416.14,267.06,416.34,267.04,416.61C267.01,416.89,267.21,417.13,267.48,417.16L272.50,417.67L272.55,417.67C272.81,417.67,273.02,417.48,273.05,417.23C273.08,416.95,272.88,416.71,272.60,416.68ZM283.64,417.80L278.62,417.29C278.35,417.26,278.10,417.46,278.08,417.74C278.05,418.01,278.25,418.26,278.52,418.28L283.54,418.79C283.56,418.80,283.58,418.80,283.59,418.80C283.85,418.80,284.06,418.60,284.09,418.35C284.12,418.07,283.92,417.83,283.64,417.80ZM294.68,418.92L289.66,418.41C289.38,418.38,289.14,418.58,289.12,418.86C289.09,419.13,289.29,419.38,289.56,419.41L294.58,419.92L294.63,419.92C294.89,419.92,295.10,419.73,295.13,419.47C295.16,419.19,294.96,418.95,294.68,418.92ZM305.72,420.04L300.70,419.53C300.43,419.50,300.18,419.71,300.16,419.98C300.13,420.26,300.33,420.50,300.60,420.53L305.62,421.04L305.67,421.04C305.93,421.04,306.14,420.85,306.17,420.59C306.20,420.32,306,420.07,305.72,420.04ZM364.24,415.35C363.96,415.35,363.74,415.58,363.74,415.85L363.74,420.21C363.74,420.42,363.73,420.64,363.71,420.85C363.68,421.12,363.88,421.37,364.15,421.39C364.17,421.40,364.19,421.40,364.20,421.40C364.46,421.40,364.67,421.21,364.70,420.95C364.73,420.71,364.74,420.46,364.74,420.21L364.74,415.85C364.74,415.58,364.51,415.35,364.24,415.35ZM316.76,421.17L311.74,420.66C311.46,420.63,311.22,420.83,311.20,421.10C311.17,421.38,311.37,421.62,311.64,421.65L316.66,422.16L316.71,422.16C316.97,422.16,317.18,421.97,317.21,421.71C317.24,421.44,317.04,421.19,316.76,421.17ZM327.80,422.29L322.78,421.78C322.50,421.75,322.26,421.95,322.24,422.22C322.21,422.50,322.41,422.75,322.68,422.77L327.70,423.28C327.72,423.28,327.74,423.29,327.75,423.29C328.01,423.29,328.22,423.09,328.25,422.84C328.28,422.56,328.08,422.32,327.80,422.29ZM338.84,423.41L333.82,422.90C333.54,422.87,333.30,423.07,333.28,423.35C333.25,423.62,333.45,423.87,333.72,423.89L338.74,424.40C338.76,424.41,338.78,424.41,338.79,424.41C339.05,424.41,339.26,424.21,339.29,423.96C339.32,423.68,339.12,423.44,338.84,423.41ZM349.88,424.53L344.86,424.02C344.58,423.99,344.34,424.20,344.32,424.47C344.29,424.74,344.49,424.99,344.76,425.02L349.78,425.53L349.83,425.53C350.09,425.53,350.30,425.34,350.33,425.08C350.36,424.80,350.16,424.56,349.88,424.53ZM361.30,425.38C361.20,425.12,360.91,425,360.65,425.10C359.95,425.37,359.20,425.48,358.40,425.40L355.90,425.14C355.62,425.12,355.38,425.32,355.36,425.59C355.33,425.87,355.53,426.11,355.80,426.14L358.30,426.39C358.51,426.41,358.71,426.42,358.92,426.42C359.65,426.42,360.36,426.29,361.02,426.03C361.28,425.92,361.40,425.63,361.30,425.38Z" fill="rgb(255,255,255)" stroke="none" stroke-width="1"/></g><g id="eujp9tnmtiid37" display="none"><g id="eujp9tnmtiid38"><path id="eujp9tnmtiid39" d="M567.59,246.14C556.42,233.12,536.81,232.52,520.88,233.94C519.21,235.35,517.80,236.64,516.28,238.05C499.53,253.61,502.89,274.62,516.81,290.33C530.73,306.04,552.16,311.58,569.39,298.76C571.07,297.51,572.30,295.95,574.09,294.64C577.03,279.09,578.76,259.16,567.59,246.14Z" fill="rgb(0,0,0)" stroke="none" stroke-width="1"/><path id="eujp9tnmtiid40" d="M521.36,286.43C507.84,270.99,503.95,249.44,521.07,234.06C538.19,218.68,558.92,226.49,572.08,241.93C585.23,257.37,589.73,280,573.74,294.32C557.75,308.64,534.87,301.86,521.36,286.43Z" fill="rgb(110,49,255)" stroke="none" stroke-width="1"/><g id="eujp9tnmtiid41"><path id="eujp9tnmtiid42" d="M518.73,244.60C520.31,242.15,522.22,239.92,524.39,237.97C530.28,232.66,536.90,230.20,544.06,230.68C552.77,231.26,561.84,236.39,568.94,244.77C579.84,257.61,584.92,277.43,570.33,290.59C565.01,295.49,557.90,297.98,550.69,297.49C541.42,296.93,531.69,291.78,524.66,283.71C518.56,276.71,514.96,268.59,514.50,260.86C514.14,255.13,515.62,249.43,518.73,244.60ZM568.49,245.15L568.04,245.53C561.14,237.40,552.37,232.42,543.97,231.86C537.14,231.40,530.81,233.76,525.16,238.85C523.01,240.76,521.13,242.95,519.57,245.36C511.32,258.31,517.01,273.16,525.53,282.94C532.35,290.78,541.78,295.78,550.74,296.32C557.64,296.79,564.44,294.40,569.53,289.71C583.54,277.08,578.58,257.94,568.03,245.52L568.49,245.15Z" fill="rgb(0,0,0)" stroke="none" stroke-width="1"/></g></g><g id="eujp9tnmtiid43" transform="matrix(1 0 0 1 1 -1)"><g id="eujp9tnmtiid44"><path id="eujp9tnmtiid45" d="M543.12,262.90L539.36,275.58L551.32,280.26L554.33,281.44L558.08,282.91L562.27,284.55L559.05,271.99L556.17,260.74L556.16,260.71L553,261.24L543.12,262.90Z" fill="rgb(255,255,255)" stroke="none" stroke-width="1"/><path id="eujp9tnmtiid46" d="M543.12,262.90L539.43,275.60L539.38,275.51L562.31,284.42L562.13,284.58L556.08,260.73L556.17,260.79L543.12,262.90ZM543.12,262.90L556.15,260.63L556.22,260.62L556.24,260.69L562.40,284.51L562.47,284.77L562.22,284.67L539.33,275.65L539.26,275.62L539.28,275.55L543.12,262.90Z" fill="rgb(255,255,255)" stroke="none" stroke-width="1"/></g><g id="eujp9tnmtiid47"><path id="eujp9tnmtiid48" d="M553.24,258.51L553.25,258.34L535.98,251.59L531.57,249.86L534.96,263.10L537.43,272.72L541.04,260.56L553.24,258.51Z" fill="rgb(255,255,255)" stroke="none" stroke-width="1"/><path id="eujp9tnmtiid49" d="M553.24,258.51L553.25,258.34L553.25,258.34L542.38,254.17L531.53,249.96L531.67,249.84L534.63,261.26L537.54,272.70L537.33,272.70L540.97,260.55L540.98,260.50L541.03,260.49L553.24,258.51ZM553.24,258.51L541.05,260.64L541.11,260.59L537.53,272.76L537.42,273.14L537.32,272.76L534.37,261.34L531.47,249.91L531.42,249.71L531.61,249.78L542.44,254.05L553.25,258.36L553.25,258.36L553.24,258.51Z" fill="rgb(255,255,255)" stroke="none" stroke-width="1"/></g></g></g><path id="eujp9tnmtiid50" d="M623.92,285.05C623.92,285.05,627.97,286.40,627.97,288.88C627.97,291.36,636.14,395.21,627.97,411.88C623.88,418.34,618.45,419.99,618.45,419.99C618.45,419.99,507.42,434.05,478.58,434.68C459.13,435.11,468.77,306.14,468.77,306.14C468.53,306.38,468.87,298.98,472.99,298.24C474.74,297.93,623.92,285.05,623.92,285.05Z" fill="rgb(110,49,255)" stroke="none" stroke-width="1"/><g id="eujp9tnmtiid51"><path id="eujp9tnmtiid52" d="M615.75,288.36C615.78,288.62,615.99,288.81,616.25,288.81L616.30,288.81L621.32,288.30C621.59,288.27,621.79,288.02,621.76,287.75C621.73,287.47,621.49,287.27,621.21,287.30L616.20,287.81C615.92,287.84,615.72,288.08,615.75,288.36ZM604.71,289.48C604.74,289.74,604.95,289.93,605.21,289.93L605.26,289.93L610.28,289.42C610.55,289.39,610.75,289.15,610.72,288.87C610.69,288.60,610.46,288.39,610.17,288.42L605.16,288.93C604.88,288.96,604.68,289.21,604.71,289.48ZM593.67,290.60C593.70,290.86,593.91,291.05,594.17,291.05L594.22,291.05L599.24,290.54C599.51,290.51,599.71,290.27,599.68,289.99C599.65,289.72,599.42,289.51,599.13,289.55L594.12,290.06C593.84,290.08,593.64,290.33,593.67,290.60ZM582.63,291.73C582.66,291.98,582.87,292.17,583.13,292.17L583.18,292.17L588.20,291.66C588.47,291.63,588.67,291.39,588.64,291.11C588.62,290.84,588.37,290.64,588.10,290.67L583.08,291.18C582.80,291.21,582.60,291.45,582.63,291.73ZM571.59,292.85C571.62,293.10,571.83,293.30,572.09,293.30C572.10,293.30,572.12,293.30,572.14,293.29L577.16,292.78C577.43,292.76,577.63,292.51,577.60,292.24C577.57,291.96,577.33,291.76,577.06,291.79L572.04,292.30C571.76,292.33,571.56,292.57,571.59,292.85ZM560.55,293.97C560.58,294.23,560.79,294.42,561.05,294.42L561.10,294.42L566.12,293.91C566.39,293.88,566.59,293.63,566.56,293.36C566.53,293.08,566.29,292.88,566.02,292.91L561,293.42C560.72,293.45,560.52,293.69,560.55,293.97ZM549.51,295.09C549.54,295.35,549.75,295.54,550.01,295.54L550.06,295.54L555.08,295.03C555.35,295,555.55,294.76,555.52,294.48C555.50,294.21,555.25,294.01,554.98,294.03L549.96,294.54C549.68,294.57,549.48,294.82,549.51,295.09ZM538.47,296.21C538.50,296.47,538.71,296.66,538.97,296.66L539.02,296.66L544.04,296.15C544.31,296.12,544.51,295.88,544.48,295.60C544.46,295.33,544.22,295.13,543.94,295.16L538.92,295.67C538.64,295.69,538.44,295.94,538.47,296.21ZM527.43,297.34C527.46,297.59,527.67,297.79,527.93,297.79C527.94,297.79,527.96,297.78,527.98,297.78L533,297.27C533.27,297.25,533.47,297,533.44,296.72C533.42,296.45,533.18,296.25,532.90,296.28L527.88,296.79C527.60,296.82,527.40,297.06,527.43,297.34ZM516.39,298.46C516.42,298.71,516.63,298.91,516.89,298.91C516.90,298.91,516.92,298.91,516.94,298.90L521.96,298.39C522.23,298.37,522.43,298.12,522.40,297.85C522.38,297.57,522.14,297.38,521.85,297.40L516.84,297.91C516.56,297.94,516.36,298.18,516.39,298.46ZM505.35,299.58C505.38,299.84,505.59,300.03,505.85,300.03L505.90,300.03L510.92,299.52C511.19,299.49,511.39,299.24,511.36,298.97C511.34,298.70,511.09,298.50,510.82,298.52L505.80,299.03C505.52,299.06,505.32,299.30,505.35,299.58ZM494.31,300.70C494.34,300.96,494.55,301.15,494.81,301.15L494.86,301.15L499.88,300.64C500.15,300.61,500.35,300.37,500.32,300.09C500.30,299.82,500.05,299.62,499.78,299.64L494.76,300.15C494.48,300.18,494.28,300.43,494.31,300.70ZM483.70,301.78L483.81,302.27L488.84,301.76C489.11,301.73,489.31,301.49,489.28,301.21C489.26,300.94,489.01,300.74,488.74,300.77L483.72,301.28L483.70,301.78ZM477.38,308.66L477.38,309.93C477.38,310.21,477.61,310.43,477.88,310.43C478.16,310.43,478.38,310.21,478.38,309.93L478.38,308.66C478.38,307.50,478.70,306.34,479.30,305.32C479.44,305.08,479.36,304.78,479.13,304.63C478.89,304.49,478.58,304.57,478.44,304.81C477.75,305.99,477.38,307.32,477.38,308.66ZM477.38,315.98L477.38,321.03C477.38,321.30,477.61,321.53,477.88,321.53C478.16,321.53,478.38,321.30,478.38,321.03L478.38,315.98C478.38,315.71,478.16,315.48,477.88,315.48C477.61,315.48,477.38,315.71,477.38,315.98ZM477.38,327.08L477.38,332.12C477.38,332.40,477.61,332.62,477.88,332.62C478.16,332.62,478.38,332.40,478.38,332.12L478.38,327.08C478.38,326.80,478.16,326.58,477.88,326.58C477.61,326.58,477.38,326.80,477.38,327.08ZM477.38,338.18L477.38,343.22C477.38,343.50,477.61,343.72,477.88,343.72C478.16,343.72,478.38,343.50,478.38,343.22L478.38,338.18C478.38,337.90,478.16,337.68,477.88,337.68C477.61,337.68,477.38,337.90,477.38,338.18ZM477.38,349.27L477.38,354.32C477.38,354.59,477.61,354.82,477.88,354.82C478.16,354.82,478.38,354.59,478.38,354.32L478.38,349.27C478.38,349,478.16,348.77,477.88,348.77C477.61,348.77,477.38,349,477.38,349.27ZM477.38,360.37L477.38,365.41C477.38,365.69,477.61,365.91,477.88,365.91C478.16,365.91,478.38,365.69,478.38,365.41L478.38,360.37C478.38,360.09,478.16,359.87,477.88,359.87C477.61,359.87,477.38,360.09,477.38,360.37ZM477.38,371.47L477.38,376.51C477.38,376.79,477.61,377.01,477.88,377.01C478.16,377.01,478.38,376.79,478.38,376.51L478.38,371.47C478.38,371.19,478.16,370.97,477.88,370.97C477.61,370.97,477.38,371.19,477.38,371.47ZM477.38,382.56L477.38,387.61C477.38,387.88,477.61,388.11,477.88,388.11C478.16,388.11,478.38,387.88,478.38,387.61L478.38,382.56C478.38,382.29,478.16,382.06,477.88,382.06C477.61,382.06,477.38,382.29,477.38,382.56ZM477.38,393.66L477.38,398.71C477.38,398.98,477.61,399.21,477.88,399.21C478.16,399.21,478.38,398.98,478.38,398.71L478.38,393.66C478.38,393.38,478.16,393.16,477.88,393.16C477.61,393.16,477.38,393.38,477.38,393.66ZM477.38,404.76L477.38,409.80C477.38,410.08,477.61,410.30,477.88,410.30C478.16,410.30,478.38,410.08,478.38,409.80L478.38,404.76C478.38,404.48,478.16,404.26,477.88,404.26C477.61,404.26,477.38,404.48,477.38,404.76ZM624.27,411.64C624.29,411.72,624.32,411.79,624.39,411.85C624.52,411.59,624.63,411.32,624.72,411.04C624.70,411.04,624.69,411.05,624.67,411.05C624.40,411.10,624.22,411.37,624.27,411.64ZM613.23,412.74C613.26,412.99,613.47,413.19,613.73,413.19C613.74,413.19,613.76,413.19,613.78,413.18L618.80,412.67C619.07,412.65,619.27,412.40,619.24,412.13C619.22,411.85,618.97,411.65,618.70,411.68L613.68,412.19C613.40,412.22,613.20,412.46,613.23,412.74ZM602.19,413.86C602.22,414.12,602.43,414.31,602.69,414.31L602.74,414.31L607.76,413.80C608.03,413.77,608.23,413.52,608.20,413.25C608.18,412.97,607.93,412.77,607.66,412.80L602.64,413.31C602.36,413.34,602.16,413.58,602.19,413.86ZM591.15,414.98C591.18,415.24,591.39,415.43,591.65,415.43L591.70,415.43L596.72,414.92C596.99,414.89,597.19,414.65,597.16,414.37C597.14,414.10,596.89,413.90,596.62,413.92L591.60,414.43C591.32,414.46,591.12,414.71,591.15,414.98ZM580.11,416.10C580.14,416.36,580.35,416.55,580.61,416.55L580.66,416.55L585.68,416.04C585.95,416.01,586.15,415.77,586.12,415.49C586.10,415.22,585.85,415.02,585.58,415.05L580.56,415.56C580.28,415.58,580.08,415.83,580.11,416.10ZM569.07,417.23C569.10,417.48,569.31,417.67,569.57,417.67L569.62,417.67L574.64,417.16C574.91,417.13,575.11,416.89,575.08,416.61C575.06,416.34,574.82,416.14,574.54,416.17L569.52,416.68C569.24,416.71,569.04,416.95,569.07,417.23ZM558.03,418.35C558.06,418.60,558.27,418.80,558.53,418.80C558.54,418.80,558.56,418.80,558.58,418.79L563.60,418.28C563.87,418.26,564.07,418.01,564.04,417.74C564.02,417.46,563.77,417.26,563.50,417.29L558.48,417.80C558.20,417.83,558,418.07,558.03,418.35ZM546.99,419.47C547.02,419.73,547.23,419.92,547.49,419.92L547.54,419.92L552.56,419.41C552.83,419.38,553.03,419.13,553,418.86C552.98,418.58,552.74,418.38,552.46,418.41L547.44,418.92C547.16,418.95,546.96,419.19,546.99,419.47ZM535.95,420.59C535.98,420.85,536.19,421.04,536.45,421.04L536.50,421.04L541.52,420.53C541.79,420.50,541.99,420.26,541.96,419.98C541.94,419.71,541.69,419.50,541.42,419.53L536.40,420.04C536.12,420.07,535.92,420.32,535.95,420.59ZM477.38,415.85L477.38,420.21C477.38,420.46,477.39,420.71,477.42,420.95C477.45,421.21,477.66,421.40,477.92,421.40C477.93,421.40,477.95,421.40,477.97,421.39C478.24,421.37,478.44,421.12,478.41,420.85C478.39,420.64,478.38,420.42,478.38,420.21L478.38,415.85C478.38,415.58,478.16,415.35,477.88,415.35C477.61,415.35,477.38,415.58,477.38,415.85ZM524.91,421.71C524.94,421.97,525.15,422.16,525.41,422.16L525.46,422.16L530.48,421.65C530.75,421.62,530.95,421.38,530.92,421.10C530.90,420.83,530.66,420.63,530.38,420.66L525.36,421.17C525.08,421.19,524.88,421.44,524.91,421.71ZM513.87,422.84C513.90,423.09,514.11,423.29,514.37,423.29C514.38,423.29,514.40,423.28,514.42,423.28L519.44,422.77C519.71,422.75,519.91,422.50,519.88,422.22C519.86,421.95,519.62,421.75,519.34,421.78L514.32,422.29C514.04,422.32,513.84,422.56,513.87,422.84ZM502.83,423.96C502.86,424.21,503.07,424.41,503.33,424.41C503.34,424.41,503.36,424.41,503.38,424.40L508.40,423.89C508.67,423.87,508.87,423.62,508.84,423.35C508.82,423.07,508.58,422.87,508.30,422.90L503.28,423.41C503,423.44,502.80,423.68,502.83,423.96ZM491.79,425.08C491.82,425.34,492.03,425.53,492.29,425.53L492.34,425.53L497.36,425.02C497.63,424.99,497.83,424.74,497.80,424.47C497.78,424.20,497.54,423.99,497.26,424.02L492.24,424.53C491.96,424.56,491.76,424.80,491.79,425.08ZM481.10,426.03C481.76,426.29,482.47,426.42,483.20,426.42C483.41,426.42,483.61,426.41,483.82,426.39L486.32,426.14C486.59,426.11,486.79,425.87,486.76,425.59C486.74,425.32,486.50,425.12,486.22,425.14L483.72,425.40C482.92,425.48,482.17,425.37,481.47,425.10C481.21,425,480.92,425.12,480.82,425.38C480.72,425.63,480.84,425.92,481.10,426.03Z" fill="rgb(255,255,255)" stroke="none" stroke-width="1"/></g><g id="eujp9tnmtiid53"><path id="eujp9tnmtiid54" d="M385.74,351.30C348.63,353.20,343.40,352.76,328.93,348.77C328.93,348.77,319.59,353.86,325.74,361.27C336.29,373.99,372.99,373.15,389.46,369.08C399.82,364.27,395.48,350.80,385.74,351.30Z" fill="rgb(0,0,0)" stroke="none" stroke-width="1"/><path id="eujp9tnmtiid55" d="M379.60,361.86C380.15,364.43,383.10,365.97,386.17,365.31C389.25,364.65,391.29,362.03,390.74,359.46C390.19,356.89,387.24,355.35,384.17,356.01C381.09,356.67,379.04,359.29,379.60,361.86Z" fill="rgb(255,255,255)" stroke="none" stroke-width="1"/></g><g id="eujp9tnmtiid56"><path id="eujp9tnmtiid57" d="M455.20,358.84C492.33,357.44,497.50,356.53,511.56,351.27C511.56,351.27,521.32,355.51,515.85,363.44C506.47,377.05,469.85,379.48,453.07,376.89C442.33,373.01,445.46,359.20,455.20,358.84Z" fill="rgb(0,0,0)" stroke="none" stroke-width="1"/><path id="eujp9tnmtiid58" d="M462.26,368.81C461.94,371.42,459.14,373.22,456.02,372.83C452.90,372.44,450.62,370.01,450.95,367.41C451.27,364.80,454.07,363,457.19,363.39C460.32,363.77,462.59,366.20,462.26,368.81Z" fill="rgb(255,255,255)" stroke="none" stroke-width="1"/></g><path id="eujp9tnmtiid59" d="M220.36,298.91C220.36,298.91,210.20,373.15,219.78,399.21" fill="none" stroke="rgb(0,0,0)" stroke-width="1" stroke-miterlimit="10"/><path id="eujp9tnmtiid60" d="M619.41,404.12C619.41,404.12,629.57,329.88,619.99,303.82" fill="none" stroke="rgb(0,0,0)" stroke-width="1" stroke-miterlimit="10"/></svg>