<?xml version="1.0" encoding="utf-8"?>
<!-- Generator: Adobe Illustrator 25.2.3, SVG Export Plug-In . SVG Version: 6.00 Build 0)  -->
<svg version="1.1" xmlns="http://www.w3.org/2000/svg" xmlns:xlink="http://www.w3.org/1999/xlink" x="0px" y="0px"
	 viewBox="0 0 435 290" style="enable-background:new 0 0 435 290;" xml:space="preserve">
<style type="text/css">
	.st0{fill:#865FFF;}
	.st1{fill:none;stroke:#000000;stroke-miterlimit:10;}
	.st2{opacity:0.7;fill:#DED4FF;enable-background:new    ;}
	.st3{display:none;}
	.st4{display:inline;}
	.st5{fill:#FFFFFF;}
	.st6{fill:#407BFF;}
	.st7{fill:#B69CFF;}
	.st8{fill:#FF3E3E;}
	.st9{fill:#9463FF;}
	.st10{fill:#6E31FF;}
</style>
<g id="epkppy2n9st1" shape-rendering="geometricPrecision" text-rendering="geometricPrecision">
	<path id="epkppy2n9st2" class="st0" d="M266.1,127.9h149.4c3.6,0,6.5,2.9,6.5,6.5v119c0,3.6-2.9,6.5-6.5,6.5H266.1
		c-3.6,0-6.5-2.9-6.5-6.5v-119C259.6,130.8,262.5,127.9,266.1,127.9z"/>
	<path id="epkppy2n9st3" class="st1" d="M419.8,132.6c0,0-144.9-2.8-149.5,3.9c-4.5,6.7-0.6,57.4,3.2,67.7"/>
	<ellipse id="epkppy2n9st4" class="st2" cx="92.2" cy="270.5" rx="78.2" ry="11.3"/>
	<ellipse id="epkppy2n9st5" class="st2" cx="341.5" cy="274.9" rx="78.2" ry="11.3"/>
	<g id="epkppy2n9st6">
		<path id="epkppy2n9st7" d="M96.9,121.7c-0.1,0-0.1,0-0.2-0.1c-0.3-0.2-0.4-0.6-0.2-0.9c0,0,1.6-2.7,4.5-7c0.2-0.3,0.6-0.4,0.9-0.2
			s0.4,0.6,0.2,1c-2.9,4.2-4.4,6.9-4.4,6.9C97.5,121.7,97.2,121.8,96.9,121.7z M107,107.1c-0.1,0-0.2-0.1-0.2-0.1
			c-0.3-0.2-0.4-0.7-0.1-1c1.6-2.2,3.4-4.3,5.1-6.4c0.2-0.3,0.7-0.3,1-0.1c0.3,0.2,0.3,0.7,0.1,1c-1.7,2.1-3.4,4.3-5.1,6.4
			C107.5,107,107.2,107.1,107,107.1z M118.3,93.4c-0.1,0-0.2-0.1-0.3-0.1c-0.3-0.2-0.3-0.7-0.1-1c1.8-2,3.7-4.1,5.6-6
			c0.3-0.3,0.7-0.3,1,0c0.3,0.3,0.3,0.7,0,1c-1.9,1.9-3.8,3.9-5.6,6C118.8,93.4,118.5,93.5,118.3,93.4z M130.7,80.7
			c-0.1,0-0.2-0.1-0.3-0.2c-0.3-0.3-0.2-0.7,0-1c2-1.9,4.1-3.7,6.1-5.5c0.3-0.2,0.7-0.2,1,0.1c0.2,0.3,0.2,0.7-0.1,1
			c-2,1.7-4.1,3.6-6.1,5.4C131.2,80.7,131,80.8,130.7,80.7z M144.3,69.3c-0.1,0-0.3-0.1-0.4-0.2c-0.2-0.3-0.2-0.7,0.1-1
			c2.2-1.7,4.4-3.3,6.6-4.8c0.3-0.2,0.7-0.1,0.9,0.2c0.2,0.3,0.1,0.7-0.2,0.9c-2.2,1.5-4.4,3.1-6.6,4.8
			C144.7,69.3,144.5,69.3,144.3,69.3z M343.4,120.6c-0.2-0.1-0.4-0.2-0.5-0.4c-1-2.5-2.1-5-3.3-7.4c-0.2-0.3,0-0.8,0.3-0.9
			c0.3-0.2,0.8,0,0.9,0.3c1.2,2.5,2.3,5,3.3,7.5c0.1,0.3,0,0.8-0.4,0.9C343.7,120.6,343.6,120.6,343.4,120.6z M158.9,59.2
			c-0.2,0-0.3-0.1-0.4-0.3c-0.2-0.3-0.1-0.7,0.2-0.9c2.4-1.4,4.8-2.8,7.1-4.1c0.3-0.2,0.7-0.1,0.9,0.3c0.2,0.3,0,0.7-0.3,0.9
			c-2.4,1.2-4.7,2.6-7.1,4C159.2,59.3,159.1,59.3,158.9,59.2z M335.7,104.7c-0.2,0-0.3-0.1-0.4-0.3c-1.4-2.3-2.8-4.6-4.3-6.9
			c-0.2-0.3-0.1-0.7,0.2-0.9c0.3-0.2,0.7-0.1,1,0.2c1.5,2.3,3,4.6,4.4,7c0.2,0.3,0.1,0.7-0.2,0.9C336,104.7,335.8,104.7,335.7,104.7
			z M174.6,51c-0.2,0-0.4-0.2-0.4-0.4c-0.1-0.3,0-0.8,0.4-0.9c2.5-1.1,5.1-2.2,7.6-3.1c0.4-0.1,0.7,0.1,0.9,0.4
			c0.1,0.4,0,0.7-0.4,0.9c-2.5,0.9-5,2-7.5,3.1C174.9,51.1,174.7,51.1,174.6,51z M325.7,90.1c-0.1,0-0.3-0.1-0.3-0.2
			c-1.7-2.1-3.5-4.2-5.3-6.2c-0.2-0.3-0.2-0.7,0-1c0.3-0.2,0.7-0.2,1,0c1.8,2,3.6,4.1,5.3,6.2c0.2,0.3,0.2,0.7-0.1,1
			C326.1,90.1,325.9,90.1,325.7,90.1z M191.2,45c-0.2-0.1-0.4-0.2-0.5-0.5c-0.1-0.4,0.1-0.7,0.5-0.8c2.6-0.8,5.3-1.4,8-2
			c0.4-0.1,0.7,0.2,0.8,0.5c0.1,0.4-0.2,0.7-0.5,0.8c-2.6,0.6-5.3,1.2-7.9,1.9C191.4,45,191.3,45,191.2,45z M313.7,77.1
			c-0.1,0-0.2-0.1-0.3-0.2c-2-1.8-4-3.6-6.1-5.4c-0.3-0.2-0.3-0.7-0.1-1c0.2-0.3,0.7-0.3,1-0.1c2.1,1.7,4.2,3.6,6.2,5.4
			c0.3,0.3,0.3,0.7,0,1C314.2,77.1,313.9,77.1,313.7,77.1z M208.5,41.4c-0.3-0.1-0.5-0.3-0.5-0.6c0-0.4,0.2-0.7,0.6-0.8
			c2.7-0.3,5.5-0.6,8.2-0.7c0.4,0,0.7,0.3,0.7,0.6c0,0.4-0.3,0.7-0.6,0.7c-2.7,0.1-5.4,0.4-8.1,0.7
			C208.7,41.5,208.6,41.5,208.5,41.4z M299.9,65.9c-0.1,0-0.1-0.1-0.2-0.1c-2.2-1.5-4.5-3-6.8-4.5c-0.3-0.2-0.4-0.6-0.2-0.9
			c0.2-0.3,0.6-0.4,0.9-0.2c2.3,1.4,4.6,3,6.9,4.5c0.3,0.2,0.4,0.6,0.2,0.9C300.5,65.9,300.2,66,299.9,65.9z M226.2,40.6
			c-0.3-0.1-0.5-0.4-0.5-0.7c0-0.4,0.3-0.7,0.7-0.7c2.7,0.1,5.5,0.3,8.2,0.5c0.4,0,0.6,0.4,0.6,0.8c0,0.4-0.4,0.6-0.8,0.6
			c-2.7-0.3-5.4-0.4-8.1-0.5C226.3,40.6,226.2,40.6,226.2,40.6z M284.8,56.7c0,0-0.1,0-0.1-0.1c-2.4-1.2-4.8-2.4-7.3-3.6
			c-0.3-0.1-0.5-0.6-0.3-0.9c0.2-0.3,0.6-0.5,0.9-0.3c2.5,1.1,5,2.3,7.4,3.6c0.3,0.2,0.5,0.6,0.3,0.9
			C285.4,56.7,285.1,56.8,284.8,56.7z M268.6,49.5C268.6,49.5,268.6,49.5,268.6,49.5c-2.6-1-5.2-1.9-7.8-2.7
			c-0.4-0.1-0.6-0.5-0.4-0.9c0.1-0.4,0.5-0.6,0.9-0.4c2.6,0.8,5.2,1.7,7.8,2.7c0.4,0.1,0.5,0.5,0.4,0.9
			C269.3,49.4,269,49.6,268.6,49.5z M243.7,42.5c-0.3-0.1-0.5-0.4-0.5-0.8c0.1-0.4,0.4-0.6,0.8-0.6c2.6,0.5,5.4,1.1,8,1.7
			c0.4,0.1,0.6,0.5,0.5,0.8c-0.1,0.4-0.5,0.6-0.8,0.5C249.1,43.6,246.4,43,243.7,42.5C243.8,42.5,243.8,42.5,243.7,42.5z"/>
		<path id="epkppy2n9st8" d="M344.2,122.1C344.2,122.1,344.1,122.1,344.2,122.1l-5.4-2.1c-0.3-0.1-0.5-0.5-0.4-0.9
			c0.1-0.4,0.5-0.5,0.9-0.4l4.7,1.9l2.1-4.5c0.2-0.3,0.6-0.5,0.9-0.3c0.3,0.2,0.5,0.6,0.3,0.9l-2.4,5
			C344.8,122,344.5,122.2,344.2,122.1z"/>
	</g>
	<g id="epkppy2n9st9" class="st3">
		<g id="epkppy2n9st10" class="st4">
			<g id="epkppy2n9st11">
				<path id="epkppy2n9st12" d="M191.2,69.6c-2.5-1.6-4.7-3.5-6.6-5.7c-5.3-5.9-7.8-12.5-7.3-19.7c0.6-8.7,5.7-17.8,14.1-24.9
					c12.8-10.9,32.7-16,45.8-1.4c4.9,5.3,7.4,12.4,6.9,19.6c-0.6,9.3-5.7,19-13.8,26c-7,6.1-15.1,9.7-22.9,10.2
					C201.7,74.2,196,72.7,191.2,69.6z M191.7,19.8l0.4,0.4c-8.1,6.9-13.1,15.7-13.7,24.1c-0.5,6.8,1.9,13.2,7,18.8
					c1.9,2.1,4.1,4,6.5,5.6c13,8.2,27.8,2.6,37.6-6c7.8-6.8,12.8-16.2,13.4-25.2c0.5-6.9-1.9-13.7-6.6-18.8
					c-12.6-14-31.8-9-44.2,1.5L191.7,19.8z"/>
			</g>
		</g>
		<g id="epkppy2n9st13" transform="matrix(1 0 0 1 1 -1)" class="st4">
			<g id="epkppy2n9st14">
				<path id="epkppy2n9st15" class="st5" d="M207.5,45.2l12.7,3.7l-0.1,0.1L229,26l0.2,0.2l-23.9,6.1l0.1-0.1L207.5,45.2z
					 M207.5,45.2l-2.3-13l0-0.1l0.1,0l23.8-6.2l0.3-0.1l-0.1,0.2l-9,22.9l0,0.1l-0.1,0L207.5,45.2z"/>
			</g>
			<g id="epkppy2n9st16">
				<path id="epkppy2n9st17" class="st5" d="M203.1,35.1l-0.2,0l-6.8,17.3l-1.7,4.4l13.2-3.4l9.6-2.5l-12.2-3.6L203.1,35.1z"/>
			</g>
		</g>
	</g>
	<path id="epkppy2n9st18" class="st6" d="M170,127.9H20.5c-3.6,0-6.5,2.9-6.5,6.5v119c0,3.6,2.9,6.5,6.5,6.5H170
		c3.6,0,6.5-2.9,6.5-6.5v-119C176.5,130.8,173.6,127.9,170,127.9z"/>
	<path id="epkppy2n9st19" class="st7" d="M170,127.9H20.5c-3.6,0-6.5,2.9-6.5,6.5v119c0,3.6,2.9,6.5,6.5,6.5H170
		c3.6,0,6.5-2.9,6.5-6.5v-119C176.5,130.8,173.6,127.9,170,127.9z"/>
	<path id="epkppy2n9st20" class="st1" d="M16.8,132.8c0,0,144.9-3.8,149.5,2.9c4.6,6.7,1,57.4-2.7,67.7"/>
	<path id="epkppy2n9st23" d="M187.2,42.4c-2.1,17,10.6,31.9,22.4,42.8c2.2,0.3,4.1,0.5,6.1,0.6c22.8,1.9,36.1-14.7,38.3-35.6
		c2.3-20.9-8.1-40.4-29.1-44.6c-2.1-0.4-4-0.3-6.2-0.7C205.2,13.3,189.3,25.4,187.2,42.4z"/>
	<path id="epkppy2n9st24" class="st8" d="M248.1,49.5c-2.3,20.4-15.7,37.8-38.6,35.4c-22.9-2.3-31.1-22.9-28.5-43
		c2.6-20.1,16.3-38.7,37.6-36.5C240.1,7.7,250.5,29.2,248.1,49.5z"/>
	<g id="epkppy2n9st25">
		<path id="epkppy2n9st26" class="st5" d="M219,79.6c-2.9,0.5-5.8,0.6-8.7,0.3c-7.9-0.8-14.2-4-18.6-9.7c-5.4-6.8-7.7-17-6.3-27.9
			c2.2-16.7,13.4-33.8,33-31.8c7.2,0.6,13.8,4.2,18.3,9.9c5.8,7.2,8.6,17.9,7.3,28.5c-1.1,9.2-4.7,17.3-10.1,22.9
			C229.8,75.9,224.6,78.7,219,79.6z M185.9,42.4l0.6,0.1c-1.4,10.6,0.8,20.4,6.1,27c4.3,5.4,10.3,8.5,17.8,9.2
			c2.9,0.3,5.7,0.2,8.6-0.3c15.1-2.6,22.3-16.8,23.8-29.7c1.2-10.3-1.4-20.7-7.1-27.7c-4.3-5.4-10.6-8.8-17.5-9.5
			c-18.8-1.9-29.6,14.7-31.7,30.8L185.9,42.4z"/>
	</g>
	<path id="epkppy2n9st34" class="st9" d="M14.4,128.5c0,0-4,1.4-4,3.8c0,2.5-8.2,106.3,0,123c4.1,6.5,9.5,8.1,9.5,8.1
		s111,14.1,139.9,14.7c19.5,0.4,9.8-128.5,9.8-128.5c0.2,0.2-0.1-7.2-4.2-7.9C163.6,141.3,14.4,128.5,14.4,128.5z"/>
	<g id="epkppy2n9st35">
		<path id="epkppy2n9st36" class="st5" d="M22.9,132.8l-5-0.5c-0.3,0-0.5,0.2-0.6,0.5c0,0.3,0.2,0.5,0.4,0.5l5,0.5h0
			c0.3,0,0.5-0.2,0.5-0.5C23.4,133.1,23.2,132.8,22.9,132.8z M34,133.9l-5-0.5c-0.3,0-0.5,0.2-0.6,0.4c0,0.3,0.2,0.5,0.4,0.6l5,0.5
			h0.1c0.3,0,0.5-0.2,0.5-0.4C34.4,134.2,34.2,134,34,133.9z M45,135.1l-5-0.5c-0.3,0-0.5,0.2-0.6,0.4c0,0.3,0.2,0.5,0.4,0.6l5,0.5
			h0.1c0.3,0,0.5-0.2,0.5-0.4C45.5,135.3,45.3,135.1,45,135.1z M56,136.2l-5-0.5c-0.3,0-0.5,0.2-0.5,0.4c0,0.3,0.2,0.5,0.4,0.6
			l5,0.5h0c0.3,0,0.5-0.2,0.5-0.4C56.5,136.5,56.3,136.2,56,136.2z M67.1,137.3l-5-0.5c-0.3,0-0.5,0.2-0.5,0.4
			c0,0.3,0.2,0.5,0.4,0.5l5,0.5c0,0,0,0,0,0c0.3,0,0.5-0.2,0.5-0.4C67.6,137.6,67.4,137.3,67.1,137.3z M78.1,138.4l-5-0.5
			c-0.3,0-0.5,0.2-0.5,0.4c0,0.3,0.2,0.5,0.4,0.6l5,0.5h0.1c0.3,0,0.5-0.2,0.5-0.5C78.6,138.7,78.4,138.5,78.1,138.4z M89.2,139.5
			l-5-0.5c-0.3,0-0.5,0.2-0.5,0.5c0,0.3,0.2,0.5,0.4,0.5l5,0.5h0c0.3,0,0.5-0.2,0.5-0.5C89.6,139.8,89.4,139.6,89.2,139.5z
			 M100.2,140.7l-5-0.5c-0.3,0-0.5,0.2-0.5,0.4c0,0.3,0.2,0.5,0.4,0.5l5,0.5h0c0.3,0,0.5-0.2,0.5-0.5
			C100.7,140.9,100.5,140.7,100.2,140.7z M111.2,141.8l-5-0.5c-0.3,0-0.5,0.2-0.5,0.4c0,0.3,0.2,0.5,0.4,0.5l5,0.5c0,0,0,0,0,0
			c0.3,0,0.5-0.2,0.5-0.5C111.7,142.1,111.5,141.8,111.2,141.8z M122.3,142.9l-5-0.5c-0.3,0-0.5,0.2-0.5,0.5c0,0.3,0.2,0.5,0.4,0.5
			l5,0.5c0,0,0,0,0.1,0c0.3,0,0.5-0.2,0.5-0.5C122.8,143.2,122.6,142.9,122.3,142.9z M133.3,144l-5-0.5c-0.3,0-0.5,0.2-0.5,0.5
			c0,0.3,0.2,0.5,0.4,0.5l5,0.5h0c0.3,0,0.5-0.2,0.5-0.5C133.8,144.3,133.6,144.1,133.3,144z M144.4,145.1l-5-0.5
			c-0.3,0-0.5,0.2-0.5,0.4c0,0.3,0.2,0.5,0.4,0.6l5,0.5h0c0.3,0,0.5-0.2,0.5-0.4C144.8,145.4,144.6,145.2,144.4,145.1z M155.4,146.3
			l-5-0.5c-0.3,0-0.5,0.2-0.5,0.4c0,0.3,0.2,0.5,0.4,0.6l5,0.5l0.1-0.5L155.4,146.3z M160.7,149.8c-0.1-0.2-0.4-0.3-0.7-0.2
			c-0.2,0.1-0.3,0.4-0.2,0.7c0.6,1,0.9,2.2,0.9,3.3v1.3c0,0.3,0.2,0.5,0.5,0.5c0.3,0,0.5-0.2,0.5-0.5v-1.3
			C161.7,152.3,161.4,151,160.7,149.8z M161.2,160.5c-0.3,0-0.5,0.2-0.5,0.5v5c0,0.3,0.2,0.5,0.5,0.5c0.3,0,0.5-0.2,0.5-0.5v-5
			C161.7,160.7,161.5,160.5,161.2,160.5z M161.2,171.6c-0.3,0-0.5,0.2-0.5,0.5v5c0,0.3,0.2,0.5,0.5,0.5c0.3,0,0.5-0.2,0.5-0.5v-5
			C161.7,171.8,161.5,171.6,161.2,171.6z M161.2,182.7c-0.3,0-0.5,0.2-0.5,0.5v5c0,0.3,0.2,0.5,0.5,0.5c0.3,0,0.5-0.2,0.5-0.5v-5
			C161.7,182.9,161.5,182.7,161.2,182.7z M161.2,193.8c-0.3,0-0.5,0.2-0.5,0.5v5.1c0,0.3,0.2,0.5,0.5,0.5c0.3,0,0.5-0.2,0.5-0.5
			v-5.1C161.7,194,161.5,193.8,161.2,193.8z M161.2,204.9c-0.3,0-0.5,0.2-0.5,0.5v5c0,0.3,0.2,0.5,0.5,0.5c0.3,0,0.5-0.2,0.5-0.5v-5
			C161.7,205.1,161.5,204.9,161.2,204.9z M161.2,216c-0.3,0-0.5,0.2-0.5,0.5v5c0,0.3,0.2,0.5,0.5,0.5c0.3,0,0.5-0.2,0.5-0.5v-5
			C161.7,216.2,161.5,216,161.2,216z M161.2,227.1c-0.3,0-0.5,0.2-0.5,0.5v5c0,0.3,0.2,0.5,0.5,0.5c0.3,0,0.5-0.2,0.5-0.5v-5
			C161.7,227.3,161.5,227.1,161.2,227.1z M161.2,238.2c-0.3,0-0.5,0.2-0.5,0.5v5c0,0.3,0.2,0.5,0.5,0.5c0.3,0,0.5-0.2,0.5-0.5v-5
			C161.7,238.4,161.5,238.2,161.2,238.2z M161.2,249.3c-0.3,0-0.5,0.2-0.5,0.5v5c0,0.3,0.2,0.5,0.5,0.5c0.3,0,0.5-0.2,0.5-0.5v-5
			C161.7,249.5,161.5,249.3,161.2,249.3z M14.4,256C14.4,256,14.4,256,14.4,256c0,0.3,0.2,0.5,0.3,0.8c0.1-0.1,0.1-0.1,0.1-0.2
			C14.9,256.4,14.7,256.1,14.4,256z M25.4,257.2l-5-0.5c-0.3,0-0.5,0.2-0.5,0.5c0,0.3,0.2,0.5,0.4,0.5l5,0.5c0,0,0,0,0.1,0
			c0.3,0,0.5-0.2,0.5-0.5C25.9,257.5,25.7,257.2,25.4,257.2z M36.5,258.3l-5-0.5c-0.3,0-0.5,0.2-0.5,0.5c0,0.3,0.2,0.5,0.4,0.5
			l5,0.5h0c0.3,0,0.5-0.2,0.5-0.5C37,258.6,36.8,258.3,36.5,258.3z M47.5,259.4l-5-0.5c-0.3,0-0.5,0.2-0.5,0.4
			c0,0.3,0.2,0.5,0.4,0.6l5,0.5h0.1c0.3,0,0.5-0.2,0.5-0.4C48,259.7,47.8,259.5,47.5,259.4z M58.6,260.6l-5-0.5
			c-0.3,0-0.5,0.2-0.5,0.4c0,0.3,0.2,0.5,0.4,0.6l5,0.5h0.1c0.3,0,0.5-0.2,0.5-0.4C59,260.8,58.8,260.6,58.6,260.6z M69.6,261.7
			l-5-0.5c-0.3,0-0.5,0.2-0.5,0.4c0,0.3,0.2,0.5,0.4,0.6l5,0.5h0c0.3,0,0.5-0.2,0.5-0.4C70.1,262,69.9,261.7,69.6,261.7z
			 M80.6,262.8l-5-0.5c-0.3,0-0.5,0.2-0.5,0.4c0,0.3,0.2,0.5,0.4,0.5l5,0.5c0,0,0,0,0,0c0.3,0,0.5-0.2,0.5-0.4
			C81.1,263.1,80.9,262.8,80.6,262.8z M91.7,263.9l-5-0.5c-0.3,0-0.5,0.2-0.5,0.4c0,0.3,0.2,0.5,0.4,0.6l5,0.5h0.1
			c0.3,0,0.5-0.2,0.5-0.5C92.2,264.2,92,264,91.7,263.9z M102.7,265l-5-0.5c-0.3,0-0.5,0.2-0.5,0.5c0,0.3,0.2,0.5,0.4,0.5l5,0.5h0.1
			c0.3,0,0.5-0.2,0.5-0.5C103.2,265.3,103,265.1,102.7,265z M161.2,260.4c-0.3,0-0.5,0.2-0.5,0.5v4.4c0,0.2,0,0.4,0,0.6
			c0,0.3,0.2,0.5,0.4,0.5c0,0,0,0,0.1,0c0.3,0,0.5-0.2,0.5-0.4c0-0.2,0-0.5,0-0.7v-4.4C161.7,260.6,161.5,260.4,161.2,260.4z
			 M113.8,266.2l-5-0.5c-0.3,0-0.5,0.2-0.5,0.4c0,0.3,0.2,0.5,0.4,0.5l5,0.5h0c0.3,0,0.5-0.2,0.5-0.5
			C114.2,266.4,114,266.2,113.8,266.2z M124.8,267.3l-5-0.5c-0.3,0-0.5,0.2-0.5,0.4c0,0.3,0.2,0.5,0.4,0.5l5,0.5c0,0,0,0,0,0
			c0.3,0,0.5-0.2,0.5-0.5C125.3,267.6,125.1,267.3,124.8,267.3z M135.8,268.4l-5-0.5c-0.3,0-0.5,0.2-0.5,0.5c0,0.3,0.2,0.5,0.4,0.5
			l5,0.5c0,0,0,0,0.1,0c0.3,0,0.5-0.2,0.5-0.5C136.3,268.7,136.1,268.4,135.8,268.4z M146.9,269.5l-5-0.5c-0.3,0-0.5,0.2-0.5,0.5
			c0,0.3,0.2,0.5,0.4,0.5l5,0.5h0c0.3,0,0.5-0.2,0.5-0.5C147.4,269.8,147.2,269.6,146.9,269.5z M158.3,270.4
			c-0.1-0.3-0.4-0.4-0.6-0.3c-0.7,0.3-1.4,0.4-2.2,0.3l-2.5-0.3c-0.3,0-0.5,0.2-0.5,0.4c0,0.3,0.2,0.5,0.4,0.6l2.5,0.2
			c0.2,0,0.4,0,0.6,0c0.7,0,1.4-0.1,2.1-0.4C158.3,270.9,158.4,270.6,158.3,270.4z"/>
	</g>
	<g id="epkppy2n9st37" class="st3">
		<g id="epkppy2n9st38" class="st4">
			<path id="epkppy2n9st39" d="M364.6,91.1c-11.2-13-30.8-13.6-46.7-12.2c-1.7,1.4-3.1,2.7-4.6,4.1c-16.8,15.6-13.4,36.6,0.5,52.3
				c13.9,15.7,35.3,21.2,52.6,8.4c1.7-1.2,2.9-2.8,4.7-4.1C374,124.1,375.8,104.2,364.6,91.1z"/>
			<path id="epkppy2n9st40" class="st10" d="M318.4,131.4c-13.5-15.4-17.4-37-0.3-52.4s37.8-7.6,51,7.9
				c13.1,15.4,17.6,38.1,1.7,52.4S331.9,146.9,318.4,131.4z"/>
			<g id="epkppy2n9st41">
				<path id="epkppy2n9st42" d="M315.7,89.6c1.6-2.5,3.5-4.7,5.7-6.6c5.9-5.3,12.5-7.8,19.7-7.3c8.7,0.6,17.8,5.7,24.9,14.1
					c10.9,12.8,16,32.7,1.4,45.8c-5.3,4.9-12.4,7.4-19.6,6.9c-9.3-0.6-19-5.7-26-13.8c-6.1-7-9.7-15.1-10.2-22.9
					C311.1,100.1,312.6,94.4,315.7,89.6z M365.5,90.1l-0.5,0.4c-6.9-8.1-15.7-13.1-24.1-13.7c-6.8-0.5-13.2,1.9-18.8,7
					c-2.1,1.9-4,4.1-5.6,6.5c-8.2,12.9-2.6,27.8,6,37.6c6.8,7.8,16.2,12.8,25.2,13.4c6.9,0.5,13.7-1.9,18.8-6.6
					c14-12.6,9-31.8-1.5-44.2L365.5,90.1z"/>
			</g>
		</g>
		<g id="epkppy2n9st43" transform="matrix(1 0 0 1 1 -1)" class="st4">
			<g id="epkppy2n9st44">
				<path id="epkppy2n9st45" class="st5" d="M340.1,107.9l-3.8,12.7l12,4.7l3,1.2l3.8,1.5l4.2,1.6L356,117l-2.9-11.2l0,0l-3.2,0.5
					L340.1,107.9z"/>
				<path id="epkppy2n9st46" class="st5" d="M340.1,107.9l-3.7,12.7l0-0.1l22.9,8.9l-0.2,0.2l-6-23.8l0.1,0.1L340.1,107.9z
					 M340.1,107.9l13-2.3l0.1,0l0,0.1l6.2,23.8l0.1,0.3l-0.2-0.1l-22.9-9l-0.1,0l0-0.1L340.1,107.9z"/>
			</g>
			<g id="epkppy2n9st47">
				<path id="epkppy2n9st48" class="st5" d="M350.2,103.5l0-0.2L333,96.6l-4.4-1.7l3.4,13.2l2.5,9.6l3.6-12.2L350.2,103.5z"/>
				<path id="epkppy2n9st49" class="st5" d="M350.2,103.5l0-0.2l0,0l-10.9-4.2L328.5,95l0.1-0.1l3,11.4l2.9,11.4h-0.2l3.6-12.2l0,0
					l0.1,0L350.2,103.5z M350.2,103.5l-12.2,2.1l0.1-0.1l-3.6,12.2l-0.1,0.4l-0.1-0.4l-3-11.4l-2.9-11.4l0-0.2l0.2,0.1l10.8,4.3
					l10.8,4.3l0,0L350.2,103.5z"/>
			</g>
		</g>
	</g>
	<path id="epkppy2n9st50" class="st10" d="M420.9,130c0,0,4,1.4,4,3.8c0,2.5,8.2,106.3,0,123c-4.1,6.5-9.5,8.1-9.5,8.1
		s-111,14.1-139.9,14.7c-19.4,0.4-9.8-128.5-9.8-128.5c-0.2,0.2,0.1-7.2,4.2-7.9C271.7,142.9,420.9,130,420.9,130z"/>
	<g id="epkppy2n9st51">
		<path id="epkppy2n9st52" class="st5" d="M412.8,133.4c0,0.3,0.2,0.5,0.5,0.5h0l5-0.5c0.3,0,0.5-0.3,0.4-0.5c0-0.3-0.3-0.5-0.5-0.5
			l-5,0.5C412.9,132.8,412.7,133.1,412.8,133.4z M401.7,134.5c0,0.3,0.2,0.4,0.5,0.4h0l5-0.5c0.3,0,0.5-0.3,0.4-0.6
			c0-0.3-0.3-0.5-0.5-0.4l-5,0.5C401.9,134,401.7,134.2,401.7,134.5z M390.7,135.6c0,0.3,0.2,0.4,0.5,0.4h0l5-0.5
			c0.3,0,0.5-0.3,0.4-0.6c0-0.3-0.3-0.5-0.5-0.4l-5,0.5C390.8,135.1,390.6,135.3,390.7,135.6z M379.6,136.7c0,0.2,0.2,0.4,0.5,0.4h0
			l5-0.5c0.3,0,0.5-0.3,0.4-0.6c0-0.3-0.3-0.5-0.5-0.4l-5,0.5C379.8,136.2,379.6,136.5,379.6,136.7z M368.6,137.9
			c0,0.2,0.2,0.4,0.5,0.4c0,0,0,0,0,0l5-0.5c0.3,0,0.5-0.3,0.4-0.5c0-0.3-0.3-0.5-0.5-0.4l-5,0.5
			C368.8,137.3,368.6,137.6,368.6,137.9z M357.5,139c0,0.3,0.2,0.5,0.5,0.5h0l5-0.5c0.3,0,0.5-0.3,0.4-0.6c0-0.3-0.3-0.5-0.5-0.4
			l-5,0.5C357.7,138.5,357.5,138.7,357.5,139z M346.5,140.1c0,0.3,0.2,0.5,0.5,0.5h0l5-0.5c0.3,0,0.5-0.3,0.4-0.5
			c0-0.3-0.3-0.5-0.5-0.5l-5,0.5C346.7,139.6,346.5,139.8,346.5,140.1z M335.5,141.2c0,0.3,0.2,0.5,0.5,0.5h0.1l5-0.5
			c0.3,0,0.5-0.3,0.4-0.5c0-0.3-0.3-0.5-0.5-0.4l-5,0.5C335.6,140.7,335.4,140.9,335.5,141.2z M324.4,142.3c0,0.2,0.2,0.5,0.5,0.5
			c0,0,0,0,0,0l5-0.5c0.3,0,0.5-0.3,0.4-0.5c0-0.3-0.3-0.5-0.5-0.4l-5,0.5C324.6,141.8,324.4,142.1,324.4,142.3z M313.4,143.5
			c0,0.2,0.2,0.5,0.5,0.5c0,0,0,0,0,0l5-0.5c0.3,0,0.5-0.3,0.4-0.5c0-0.3-0.3-0.5-0.6-0.5l-5,0.5
			C313.6,142.9,313.4,143.2,313.4,143.5z M302.4,144.6c0,0.3,0.2,0.5,0.5,0.5h0l5-0.5c0.3,0,0.5-0.3,0.4-0.5c0-0.3-0.3-0.5-0.5-0.5
			l-5,0.5C302.5,144.1,302.3,144.3,302.4,144.6z M291.3,145.7c0,0.3,0.2,0.4,0.5,0.4h0l5-0.5c0.3,0,0.5-0.3,0.4-0.6
			c0-0.3-0.3-0.5-0.5-0.4l-5,0.5C291.5,145.2,291.3,145.4,291.3,145.7z M280.7,146.8l0.1,0.5l5-0.5c0.3,0,0.5-0.3,0.4-0.6
			c0-0.3-0.3-0.5-0.5-0.4l-5,0.5L280.7,146.8z M274.4,153.7v1.3c0,0.3,0.2,0.5,0.5,0.5c0.3,0,0.5-0.2,0.5-0.5v-1.3
			c0-1.2,0.3-2.3,0.9-3.3c0.1-0.2,0.1-0.5-0.2-0.7c-0.2-0.1-0.6-0.1-0.7,0.2C274.8,151,274.4,152.3,274.4,153.7z M274.4,161v5
			c0,0.3,0.2,0.5,0.5,0.5c0.3,0,0.5-0.2,0.5-0.5v-5c0-0.3-0.2-0.5-0.5-0.5C274.6,160.5,274.4,160.7,274.4,161z M274.4,172.1v5
			c0,0.3,0.2,0.5,0.5,0.5c0.3,0,0.5-0.2,0.5-0.5v-5c0-0.3-0.2-0.5-0.5-0.5C274.6,171.6,274.4,171.8,274.4,172.1z M274.4,183.2v5
			c0,0.3,0.2,0.5,0.5,0.5c0.3,0,0.5-0.2,0.5-0.5v-5c0-0.3-0.2-0.5-0.5-0.5C274.6,182.7,274.4,182.9,274.4,183.2z M274.4,194.3v5.1
			c0,0.3,0.2,0.5,0.5,0.5c0.3,0,0.5-0.2,0.5-0.5v-5.1c0-0.3-0.2-0.5-0.5-0.5C274.6,193.8,274.4,194,274.4,194.3z M274.4,205.4v5
			c0,0.3,0.2,0.5,0.5,0.5c0.3,0,0.5-0.2,0.5-0.5v-5c0-0.3-0.2-0.5-0.5-0.5C274.6,204.9,274.4,205.1,274.4,205.4z M274.4,216.5v5
			c0,0.3,0.2,0.5,0.5,0.5c0.3,0,0.5-0.2,0.5-0.5v-5c0-0.3-0.2-0.5-0.5-0.5C274.6,216,274.4,216.2,274.4,216.5z M274.4,227.6v5
			c0,0.3,0.2,0.5,0.5,0.5c0.3,0,0.5-0.2,0.5-0.5v-5c0-0.3-0.2-0.5-0.5-0.5C274.6,227.1,274.4,227.3,274.4,227.6z M274.4,238.7v5
			c0,0.3,0.2,0.5,0.5,0.5c0.3,0,0.5-0.2,0.5-0.5v-5c0-0.3-0.2-0.5-0.5-0.5C274.6,238.2,274.4,238.4,274.4,238.7z M274.4,249.8v5
			c0,0.3,0.2,0.5,0.5,0.5c0.3,0,0.5-0.2,0.5-0.5v-5c0-0.3-0.2-0.5-0.5-0.5C274.6,249.3,274.4,249.5,274.4,249.8z M421.3,256.6
			c0,0.1,0,0.1,0.1,0.2c0.1-0.3,0.2-0.5,0.3-0.8c0,0,0,0,0,0C421.4,256.1,421.2,256.4,421.3,256.6z M410.2,257.7
			c0,0.2,0.2,0.5,0.5,0.5c0,0,0,0,0.1,0l5-0.5c0.3,0,0.5-0.3,0.4-0.5c0-0.3-0.3-0.5-0.5-0.5l-5,0.5
			C410.4,257.2,410.2,257.5,410.2,257.7z M399.2,258.9c0,0.3,0.2,0.5,0.5,0.5h0l5-0.5c0.3,0,0.5-0.3,0.4-0.5c0-0.3-0.3-0.5-0.5-0.5
			l-5,0.5C399.4,258.3,399.2,258.6,399.2,258.9z M388.2,260c0,0.3,0.2,0.4,0.5,0.4h0l5-0.5c0.3,0,0.5-0.3,0.4-0.6
			c0-0.3-0.3-0.5-0.5-0.4l-5,0.5C388.3,259.5,388.1,259.7,388.2,260z M377.1,261.1c0,0.3,0.2,0.4,0.5,0.4h0l5-0.5
			c0.3,0,0.5-0.3,0.4-0.6c0-0.3-0.3-0.5-0.5-0.4l-5,0.5C377.3,260.6,377.1,260.8,377.1,261.1z M366.1,262.2c0,0.2,0.2,0.4,0.5,0.4h0
			l5-0.5c0.3,0,0.5-0.3,0.4-0.6c0-0.3-0.3-0.5-0.5-0.4l-5,0.5C366.2,261.7,366,262,366.1,262.2z M355,263.4c0,0.2,0.2,0.4,0.5,0.4
			c0,0,0,0,0,0l5-0.5c0.3,0,0.5-0.3,0.4-0.5c0-0.3-0.3-0.5-0.5-0.4l-5,0.5C355.2,262.8,355,263.1,355,263.4z M344,264.5
			c0,0.3,0.2,0.5,0.5,0.5h0l5-0.5c0.3,0,0.5-0.3,0.4-0.6c0-0.3-0.3-0.5-0.5-0.4l-5,0.5C344.2,264,344,264.2,344,264.5z M333,265.6
			c0,0.3,0.2,0.5,0.5,0.5h0l5-0.5c0.3,0,0.5-0.3,0.4-0.5c0-0.3-0.3-0.5-0.5-0.5l-5,0.5C333.1,265.1,332.9,265.3,333,265.6z
			 M274.4,260.9v4.4c0,0.2,0,0.5,0,0.7c0,0.3,0.2,0.4,0.5,0.4c0,0,0,0,0,0c0.3,0,0.5-0.3,0.4-0.5c0-0.2,0-0.4,0-0.6v-4.4
			c0-0.3-0.2-0.5-0.5-0.5C274.6,260.4,274.4,260.6,274.4,260.9z M321.9,266.7c0,0.3,0.2,0.5,0.5,0.5h0.1l5-0.5
			c0.3,0,0.5-0.3,0.4-0.5c0-0.3-0.3-0.5-0.5-0.4l-5,0.5C322.1,266.2,321.9,266.4,321.9,266.7z M310.9,267.8c0,0.2,0.2,0.5,0.5,0.5
			c0,0,0,0,0,0l5-0.5c0.3,0,0.5-0.3,0.4-0.5c0-0.3-0.3-0.5-0.5-0.4l-5,0.5C311,267.3,310.8,267.6,310.9,267.8z M299.8,269
			c0,0.2,0.2,0.5,0.5,0.5c0,0,0,0,0.1,0l5-0.5c0.3,0,0.5-0.3,0.4-0.5c0-0.3-0.3-0.5-0.5-0.5l-5,0.5C300,268.4,299.8,268.7,299.8,269
			z M288.8,270.1c0,0.3,0.2,0.5,0.5,0.5h0l5-0.5c0.3,0,0.5-0.3,0.4-0.5c0-0.3-0.3-0.5-0.5-0.5l-5,0.5
			C289,269.6,288.8,269.8,288.8,270.1z M278.1,271c0.7,0.3,1.4,0.4,2.1,0.4c0.2,0,0.4,0,0.6,0l2.5-0.2c0.3,0,0.5-0.3,0.4-0.6
			c0-0.3-0.3-0.5-0.5-0.4l-2.5,0.3c-0.8,0.1-1.5,0-2.2-0.3c-0.3-0.1-0.5,0-0.6,0.3C277.7,270.6,277.8,270.9,278.1,271z"/>
	</g>
	<g id="epkppy2n9st53">
		<path id="epkppy2n9st54" d="M182.7,196.3c-37.1,1.9-42.3,1.5-56.8-2.5c0,0-9.3,5.1-3.2,12.5c10.6,12.7,47.2,11.9,63.7,7.8
			C196.8,209.3,192.5,195.8,182.7,196.3z"/>
		<path id="epkppy2n9st55" class="st5" d="M176.6,206.9c0.5,2.6,3.5,4.1,6.6,3.5c3.1-0.7,5.1-3.3,4.6-5.9c-0.5-2.6-3.5-4.1-6.6-3.4
			C178.1,201.7,176,204.3,176.6,206.9z"/>
	</g>
	<g id="epkppy2n9st56">
		<path id="epkppy2n9st57" d="M252.2,203.8c37.1-1.4,42.3-2.3,56.4-7.6c0,0,9.8,4.2,4.3,12.2c-9.4,13.6-46,16-62.8,13.5
			C239.3,218,242.5,204.2,252.2,203.8z"/>
		<path id="epkppy2n9st58" class="st5" d="M259.3,213.8c-0.3,2.6-3.1,4.4-6.2,4c-3.1-0.4-5.4-2.8-5.1-5.4c0.3-2.6,3.1-4.4,6.2-4
			C257.3,208.8,259.6,211.2,259.3,213.8z"/>
	</g>
	<path id="epkppy2n9st59" class="st1" d="M17.4,143.9c0,0-10.2,74.2-0.6,100.3"/>
	<path id="epkppy2n9st60" class="st1" d="M416.4,249.1c0,0,10.2-74.2,0.6-100.3"/>
</g>
<g id="Layer_1">
	<polygon class="st5" points="227,58.6 217.5,45.7 229,34.1 226.6,30.6 214.8,42.4 205.3,29.5 202.1,32.7 211.8,45.3 200,57.1 
		202.7,60.4 214.3,48.8 224,61.5 	"/>
</g>
</svg>
